<svg xmlns="http://www.w3.org/2000/svg" viewBox="0 0 500 500"><g id="freepik--background-complete--inject-2"><path d="M65.71,281.13c23.54-12.7,46.94-5.54,46.94-5.54C95.91,290.82,65.71,281.13,65.71,281.13Z" style="fill:#e0e0e0"></path><path d="M140.18,258.12c4.63,15.75-2.75,29.76-2.75,29.76C130.38,276.16,140.18,258.12,140.18,258.12Z" style="fill:#e0e0e0"></path><path d="M137.58,295.3c-17.5,9.09-35.68,3.72-35.68,3.72C114.1,288,137.58,295.3,137.58,295.3Z" style="fill:#e0e0e0"></path><path d="M100.85,261.42c.23-.29,11.56,8.38,25.31,19.35s24.72,20.11,24.49,20.4-11.56-8.38-25.31-19.36S100.62,261.7,100.85,261.42Z" style="fill:#e0e0e0"></path><path d="M64.43,239.58s30.48,1.63,41.6,26.53C106,266.11,80,265.07,64.43,239.58Z" style="fill:#e0e0e0"></path><path d="M106.88,230.39s23.5,19.48,17.59,46.1C124.47,276.49,104.2,260.15,106.88,230.39Z" style="fill:#e0e0e0"></path><path d="M458.88,211.69c-27.67-5.54-49.05,8.9-49.05,8.9C431.41,230.78,458.88,211.69,458.88,211.69Z" style="fill:#e0e0e0"></path><path d="M376.68,211.48c.19,17.32,12,29.16,12,29.16C392.13,226.64,376.68,211.48,376.68,211.48Z" style="fill:#e0e0e0"></path><path d="M390.78,248.17c20.45,3.76,37.12-7.27,37.12-7.27C412.21,233.59,390.78,248.17,390.78,248.17Z" style="fill:#e0e0e0"></path><path d="M417.35,202.66c-.32-.22-9.07,12-19.55,27.34s-18.71,27.91-18.39,28.12,9.07-12,19.55-27.33S417.67,202.88,417.35,202.66Z" style="fill:#e0e0e0"></path><path d="M447.33,169.39s-30.22,11.06-33.76,39.6C413.57,209,439.49,199.91,447.33,169.39Z" style="fill:#e0e0e0"></path><path d="M401.69,173.24s-17.68,26.89-3.51,51.91C398.18,225.15,413.58,202.41,401.69,173.24Z" style="fill:#e0e0e0"></path><path d="M390.39,76A49,49,0,0,0,356,82.27C371.12,89.42,390.39,76,390.39,76Z" style="fill:#e0e0e0"></path><path d="M332.72,75.87c.13,12.15,8.39,20.46,8.39,20.46C343.56,86.51,332.72,75.87,332.72,75.87Z" style="fill:#e0e0e0"></path><path d="M342.61,101.61c14.35,2.64,26.05-5.1,26.05-5.1C357.65,91.38,342.61,101.61,342.61,101.61Z" style="fill:#e0e0e0"></path><path d="M361.26,69.68c-.23-.15-6.37,8.44-13.72,19.18s-13.13,19.58-12.9,19.74,6.36-8.44,13.71-19.18S361.48,69.84,361.26,69.68Z" style="fill:#e0e0e0"></path><path d="M382.29,46.34s-21.21,7.76-23.68,27.78A40.66,40.66,0,0,0,382.29,46.34Z" style="fill:#e0e0e0"></path><path d="M350.27,49s-12.41,18.87-2.46,36.43A40.69,40.69,0,0,0,350.27,49Z" style="fill:#e0e0e0"></path><rect x="58.37" y="171.23" width="42.07" height="52.62" transform="translate(-125.25 256.22) rotate(-84.1)" style="fill:#f5f5f5"></rect><rect x="60.99" y="173.07" width="36.77" height="48.92" transform="translate(-125.27 256.18) rotate(-84.1)" style="fill:#ebebeb"></rect><polygon points="53.15 213.31 72.5 192.33 81.56 207.64 89.48 200.77 101.81 218.34 53.15 213.31" style="fill:#e0e0e0"></polygon><path d="M87.78,191.09a3.85,3.85,0,1,1-3.43-4.22A3.85,3.85,0,0,1,87.78,191.09Z" style="fill:#e0e0e0"></path><rect x="379.79" y="380.35" width="30.38" height="38" transform="translate(-57.52 732.11) rotate(-81.65)" style="fill:#f5f5f5"></rect><rect x="381.68" y="381.68" width="26.55" height="35.33" transform="translate(-57.54 732.08) rotate(-81.65)" style="fill:#ebebeb"></rect><polygon points="375.55 409.92 390.15 395.38 396.22 406.7 402.15 402 410.5 415.05 375.55 409.92" style="fill:#e0e0e0"></polygon><path d="M401.22,395a2.78,2.78,0,1,1-2.35-3.16A2.79,2.79,0,0,1,401.22,395Z" style="fill:#e0e0e0"></path><rect x="70.74" y="342.47" width="38" height="30.38" transform="translate(-157.57 84.14) rotate(-28.03)" style="fill:#f5f5f5"></rect><rect x="72.06" y="344.4" width="35.33" height="26.55" transform="translate(-157.57 84.13) rotate(-28.03)" style="fill:#ebebeb"></rect><polygon points="80.37 377.7 83.5 357.33 95.1 362.85 97.08 355.54 111.55 361.09 80.37 377.7" style="fill:#e0e0e0"></polygon><path d="M92.16,350.43a2.78,2.78,0,1,1-3.76-1.15A2.78,2.78,0,0,1,92.16,350.43Z" style="fill:#e0e0e0"></path></g><g id="freepik--Table--inject-2"><path d="M458.74,484.12c0,.14-93.46.26-208.73.26s-208.75-.12-208.75-.26,93.44-.26,208.75-.26S458.74,484,458.74,484.12Z" style="fill:#263238"></path></g><g id="freepik--Globe--inject-2"><path d="M375.36,185.82c-1.31-2.95-1.6-6.23-2.47-9.33-.46-1.67-1.24-3.45-2.81-4.19a26.05,26.05,0,0,0-3.36-.76c-4-1.18-5-6.69-8.76-8.41a13.13,13.13,0,0,0-3.76-.78c-5-.59-10.19-2.32-13.34-6.25a23.69,23.69,0,0,0-3.08-3.8c-1.29-1-3.27-1.48-4.52-.43l3.13,6.32a16.64,16.64,0,0,0,3.5,5.26c1.61,1.42,4,2.16,5.9,1.27a3.86,3.86,0,0,1,2-.7,2.1,2.1,0,0,1,1.29.83c2.73,3,1.84,8-.82,11.11s-6.57,4.67-10.35,6.17a8.07,8.07,0,0,1-4.23.82c-2.62-.49-4-3.34-4.77-5.89-1.72-5.67-2.54-11.81-6.05-16.59-1.12-1.5-2.51-2.87-3.19-4.62-.72-1.91-.55-4.12-1.69-5.79s-3.69-2.77-3.86-4.88c-.11-1.48,1.12-2.79,2.47-3.43s2.87-.84,4.27-1.41c.55-.23,1.16-.64,1.18-1.23,0-.88-1.23-1.24-1.54-2.07s.61-1.79,1-2.7c.87-2.07-1.29-4.16-3.38-5s-4.58-1.46-5.56-3.48a12.23,12.23,0,0,1-.67-3c-.49-2.55-2.37-5-4.94-5.45s-5.48,1.88-5.05,4.46c.25,1.42,1.31,2.52,1.88,3.83s.42,3.25-.93,3.67c-2.22.68-4.36-3.38-6.21-2,.76,2.59,1.49,5.19,2.26,7.81-2.92,1.48-6.41-1.2-7.65-4.24s-1.29-6.49-2.77-9.41-5.47-5.11-8-3c-.12,3.76,4.84,5.28,7,8.33,1.58,2.19,1.35,5.76-1,7.16s-6-1-5.14-3.59c.32-.89,1.06-1.63,1.14-2.58.09-1.18-.91-2.13-1.81-2.9l-4.25-3.57a9,9,0,0,0-3-1.9c-2.92-.84-5.83,1.52-7.38,4.12s-2.4,5.69-4.54,7.86c-3.06,3.17-8.87,3.36-11.74,0s-1.42-9.52,2.83-10.73c1.6-.44,3.63-.4,4.48-1.81,1.47-2.52-2.75-5.73-1.29-8.27,1.12-1.94,4.07-1,6.23-1.71s3.34-2.81,4.61-4.67,3.21-3.69,5.4-3.21a6.75,6.75,0,0,1,.24-3.84c.57-1.18,2.17-2,3.23-1.18-1.08,1.77.21,4.24,2.09,5.13s4.08.67,6.15.44,4.67-1,4.84-3.08a7.22,7.22,0,0,1,.06-2c.91-2.47,5.47.93,7.22-1.06,1-1-.1-2.87-1.52-3.21s-2.85.17-4.29.21-3.19-.69-3.25-2.13,1.52-2.43,1.69-3.82c.28-2.37-3.74-3-5.15-1.06s-.91,4.56-.49,6.91.66,5.11-1.08,6.76c-.74,1.12-2.66.53-3.29-.66s-.51-2.62-.62-4-.69-2.87-2-3.23a7.17,7.17,0,0,0-2.81.32c-3.68.44-6.23-4.31-5.07-7.82s4.48-5.79,7.71-7.58c2.36-1.31,5.3-2.54,7.65-1.21,1.09.61,1.86,1.67,2.93,2.3,1.86,1.1,4.16.7,6.3.74a14.75,14.75,0,0,1,9.19,3.57c.95.87,1.84,2.31,1.1,3.34s-3.11,1.33-2.71,2.62a4.58,4.58,0,0,0,5.75-3.7A3.87,3.87,0,0,1,308.12,87a6.84,6.84,0,0,1,10,.83A8.73,8.73,0,0,0,320,90.16c.85.55,2.33.28,2.43-.72a2,2,0,0,0-.17-.93c-.5-1.43-1-2.85-1.54-4.26,2-1.06,4.29.59,5.62,2.36,4.94,6.62,8.47,2.64,15.44,3.72,4.71.72,6.79,3.74,9.45,7.4,8.15,11.24,18.93,20.45,26.34,32.19.78,1.23,1.5,2.47,2.18,3.74-.13-.31-.23-.63-.36-.95a130.28,130.28,0,0,0-10.78-21.91c-.9-1.48-1.83-2.93-2.78-4.37-.6-.89-1.21-1.8-1.82-2.66-.78-1.14-1.61-2.24-2.43-3.34-.66-.89-1.31-1.75-2-2.6-.46-.59-1-1.18-1.43-1.77s-1.06-1.33-1.65-2l-1.78-2a5.41,5.41,0,0,0-.57-.63c-.61-.72-1.26-1.42-1.92-2.11a.56.56,0,0,0-.19-.22c-.17-.19-.36-.38-.55-.57-.53-.59-1.1-1.16-1.65-1.73-.9-.93-1.83-1.86-2.78-2.75-.79-.78-1.59-1.52-2.41-2.26s-1.44-1.31-2.18-1.94-1.44-1.25-2.18-1.86c-.88-.76-1.79-1.5-2.72-2.24h0q-3.84-3.08-7.9-5.81c-.68-.46-1.33-.91-2-1.35s-1.37-.89-2.05-1.31-1.37-.87-2.07-1.27-1.39-.84-2.09-1.24-1.12-.66-1.69-1a9.54,9.54,0,0,0-.87-.49c-1.2-.68-2.43-1.33-3.65-1.94-.61-.32-1.23-.64-1.86-.93s-1.59-.79-2.39-1.14a1.33,1.33,0,0,0-.36-.17c-.72-.34-1.43-.68-2.17-1l-3.11-1.31c-1.18-.48-2.37-1-3.57-1.41s-2.66-1-4-1.44-2.73-.91-4.1-1.33-2.75-.8-4.14-1.18c-2.75-.74-5.54-1.4-8.35-2l-.15,0c-1.07-.21-2.15-.42-3.23-.59a1,1,0,0,0-.21,0c-.46-.09-.95-.17-1.44-.24q-3-.5-6.08-.84c-.23,0-.49-.06-.74-.09-.59-.08-1.18-.12-1.8-.19-1.35-.12-2.7-.23-4.07-.31s-2.86-.17-4.29-.21-3-.09-4.5-.09q-6,0-11.79.53c-.93.06-1.84.15-2.75.25l-2.85.34-2.83.4c-.95.15-1.88.3-2.83.47s-1.63.27-2.43.44c-2,.38-3.95.8-5.9,1.27-.9.21-1.81.44-2.72.7s-1.82.48-2.7.74c-1.51.42-3,.88-4.42,1.35h0l-3.55,1.2-.09,0c-1.2.43-2.36.87-3.54,1.34l-.19.06c-1.08.42-2.16.86-3.22,1.31-1.33.55-2.64,1.14-3.93,1.73-1.09.51-2.17,1-3.23,1.54s-2.28,1.14-3.4,1.74l-.13.06c-1.07.57-2.15,1.16-3.21,1.77s-2.17,1.25-3.25,1.93h0c-1,.61-2,1.22-3,1.86-.38.23-.74.48-1.12.73-1.06.68-2.07,1.38-3.11,2.1-1.26.86-2.49,1.77-3.72,2.68-1.07.8-2.13,1.63-3.16,2.45A133,133,0,0,0,155,91.6c-1.8,2-3.49,4-5.13,6.08-1.4,1.78-2.75,3.57-4,5.43q-1.74,2.43-3.36,4.94,1.62-2.51,3.36-4.94c.34,0,.68-.08,1-.1,1.9-.15,3.9-.09,5.61-.91s2.71-2.2,4.15-3.21c3.67-2.62,9.69-3.11,10.69-7.5.33-1.48-.07-3.09.48-4.5,1-2.64,4.56-3,7.4-3,1.2,0,2.62.17,3.17,1.22a3.07,3.07,0,0,1-.13,2.46,22.93,22.93,0,0,1-9.7,11.91c-3.68,2.24-8.47,4-9.48,8.16.5,1.41,3.08,1.31,3.29,2.78.15,1.19-1.37,1.8-1.92,2.86-.8,1.54,1,3.42,2.79,3.33s3.21-1.35,4.5-2.53c3.84-3.57,7.88-7.42,9.27-12.49.59-2.09.8-4.54,2.49-5.93a4.13,4.13,0,0,1,6.28,2c1.67-.93,4.27-1.62,5.13.11a8.74,8.74,0,0,1,.36,2c.55,2.7,4.25,3.92,4.63,6.65.44,3.15-3.59,4.77-6.74,5.26L180.51,113a8,8,0,0,0-3.55,1.14,2.78,2.78,0,0,0-1.05,3.32,8.5,8.5,0,0,0,1.48,1.52c2.36,2.37.42,7.25-2.92,7.35-1.14,0-2.26-.38-3.4-.42-3.38-.15-6.06,2.83-7.67,5.81s-2.81,6.38-5.51,8.41c-4.36,3.27-11.86,2.51-14,7.54-.84,2-.4,4.31-.06,6.49s.48,4.56-.78,6.36-4.5,2.15-5.43.17a4.88,4.88,0,0,1-.13-2.81c.51-3.13,1-6.26,1.48-9.38.36-2.33.68-4.93-.7-6.83-1.92-2.66-6.23-2.41-8.72-.27s-3.51,5.47-4.21,8.66a37.29,37.29,0,0,1-2.41,8.41h0c-.44,2.62-.8,5.28-1.07,8s-.47,5.47-.57,8.26a12,12,0,0,0,1.07-1c1.33-1.37,4-7.18,6.43-4.33a2.16,2.16,0,0,1,0,2.64c-.74.95-2.22,1.16-2.79,2.2-.7,1.22.27,2.74,1.42,3.54s2.53,1.34,3.33,2.5c1.55,2.22.07,5.58,1.57,7.84,1.29,1.94,4,2.07,6.38,2.32l.8.13c.65-4.65,2.83-8.43,9.17-9.87,8.74-2,20.24,5.26,25.16,11.85,5.49,7.38,8.09,17.81,16.5,21.51,6,2.64,14.58,1.69,17.51,7.58,2.62,5.29-1.94,11.22-2.64,17.07-.44,3.87.83,7.72,1.12,11.58s-.86,8.41-4.39,10c-2,.88-4.44.78-6,2.26-2.81,2.66-.51,8.15-3.32,10.81-1,.93-2.37,1.27-3.57,1.88-6.32,3.19-6.15,12.49-3.21,18.93.1.24.21.45.32.68a133.4,133.4,0,0,0,68.47,18.91,132.9,132.9,0,0,0,62.64-15.59h0a135.47,135.47,0,0,0,11.81-7.12,131.29,131.29,0,0,0,16.58-13.19,126.61,126.61,0,0,0,10.14-10.58c2.24-2.58,4.36-5.26,6.38-8,1-1.41,2.05-2.83,3-4.29a126.84,126.84,0,0,0,8-13.33,133.23,133.23,0,0,0,13.73-43.45c.4-3,.72-6,.93-9.11a7.68,7.68,0,0,1-5.36,2.39C379.29,191.47,376.65,188.78,375.36,185.82Z" style="fill:#fafafa"></path><path d="M222.79,81.77c-2.64,1.58-4,4.56-6.09,6.87s-5.7,4-8.11,2a5.59,5.59,0,0,1-1.81-3.93,10,10,0,0,1,1.44-6.12c1.15-1.87,2.9-3.35,3.87-5.32s.78-4.86-1.22-5.78c-1.08-.5-2.43-.31-3.39-1-1.72-1.27-.49-4.27,1.51-5s4.22-.17,6.35,0c7.74.5,13.43-4.57,19.25-8.78,4.52-3.27,14.16-7.14,19.39-3.79,2.09,1.33,2.91,4.76.94,6.27-.88.67-2.09.82-2.91,1.57-1,.89-1.13,2.37-1.69,3.57-1.46,3.13-5.69,4.27-7,7.45-.82,1.91-.45,4.29-1.71,6-1,1.31-2.73,1.78-4.34,2.16l-10.09,2.4A14.92,14.92,0,0,0,222.79,81.77Z" style="fill:#ebebeb"></path><path d="M313,246.09c-3.35,5-3.95,11.35-4.88,17.33s-2.53,12.34-7.12,16.28-13,3.71-15.57-1.79c-1.38-3-.67-6.51-1.42-9.71-1-4.17-4.3-7.38-5.87-11.37-1.34-3.39-1.35-7.14-1.46-10.79-.6-19.95-5.46-40.77-19-55.4-1.67-1.8-3.57-3.55-5.94-4.18a7.6,7.6,0,0,0-7.79,2.69c-1.09,1.45-1.65,3.29-3,4.51-2.9,2.65-8,.75-9.91-2.67s-1.67-7.61-1.34-11.53l1.2-14.57c.21-2.54.5-5.26,2.17-7.19,2.37-2.74,6.62-2.87,9.52-5,3.8-2.85,4.31-8.28,6.71-12.38s9.9-5.84,11-1.22c7.94-17,25.49,8.25,35.92,6.36,3-.56,6-2,9-1.58,5.39.75,8.17,6.68,10,11.8q4.58,12.75,9.13,25.5c1.16,3.24,2.65,6.84,5.86,8.08,2.46.95,5.31.23,7.79,1.13,6.55,2.38,4.42,12.68-.85,17.24S324.51,215,322,221.52c-1.89,4.9-.38,10.64-2.41,15.48C318.14,240.46,315.08,243,313,246.09Z" style="fill:#ebebeb"></path><path d="M337.86,251.63c-2.15.3-4.69-.76-6.33.67-.95.84-1.16,2.21-1.54,3.42a7.35,7.35,0,0,1-3.05,4.16,4.58,4.58,0,0,1-5-.09,3.37,3.37,0,0,1-.68-4.66,21.21,21.21,0,0,1,1.86-1.52c2.85-2.7.9-7.7,3.07-10.91,1.28-1.89,3.29-3.81,4.7-5.73,1.08-1.48,1.48-2.64,3.47-3C343.08,232.22,347,250.35,337.86,251.63Z" style="fill:#ebebeb"></path><g style="opacity:0.6000000000000001"><path d="M180.36,291.19c1.12.75,2.26,1.49,3.41,2.21.8.51,1.6,1,2.43,1.48-.83-.49-1.63-1-2.43-1.48C182.62,292.68,181.48,291.94,180.36,291.19Z" style="fill:#263238"></path></g><g style="opacity:0.6000000000000001"><path d="M121.32,174.75v0h0v0c0,.26,0,.49,0,.74,0,.8,0,1.61,0,2.41,0-.8,0-1.61,0-2.41C121.27,175.24,121.3,175,121.32,174.75Z" style="fill:#263238"></path></g><path d="M138.62,215.4c-.42-3.82.84-7.65.91-11.51,0-2.66-.15-5.47-.19-8.16a36,36,0,0,1-6.78-.95,2,2,0,0,1-1.25-.63,2.53,2.53,0,0,1-.28-1.42c-.16-3-3.06-5-5.66-6.48a21.58,21.58,0,0,0-4.12-2c0,.32,0,.61,0,.93a133,133,0,0,0,8.5,42.36A127.55,127.55,0,0,0,137.92,245c1.31,2.43,2.75,4.82,4.25,7.16,1.86,2.9,3.8,5.73,5.89,8.45s4,5.18,6.19,7.63A133.3,133.3,0,0,0,163.7,278q4.4,4.11,9.19,7.81c-7.29-19.56-14.16-39.52-26.62-56.17C143,225.25,139.23,220.81,138.62,215.4Z" style="fill:#ebebeb"></path><path d="M139.57,190.56l-.8-.13c-2.35-.25-5.09-.38-6.38-2.32-1.5-2.26,0-5.62-1.57-7.84-.8-1.16-2.19-1.67-3.33-2.5s-2.12-2.32-1.42-3.54c.57-1,2.05-1.25,2.79-2.2a2.16,2.16,0,0,0,0-2.64c-2.41-2.85-5.1,3-6.43,4.33a12,12,0,0,1-1.07,1v0c0,.26,0,.49,0,.74,0,.8,0,1.61,0,2.41s0,1.61,0,2.41c0,.65,0,.62,0,1.27s0,2,.06,2.64a21.58,21.58,0,0,1,4.12,2c2.6,1.5,5.5,3.48,5.66,6.48a2.53,2.53,0,0,0,.28,1.42,2,2,0,0,0,1.25.63,36,36,0,0,0,6.78.95" style="fill:#ebebeb"></path><path d="M139.34,195.73c0,2.69.23,5.5.19,8.16-.07,3.86-1.33,7.69-.91,11.51.61,5.41,4.37,9.85,7.65,14.2,12.46,16.65,19.33,36.61,26.62,56.17h0c1.35,1.08,2.72,2.1,4.12,3.09,1.1.79,2.2,1.57,3.33,2.33s2.26,1.49,3.41,2.21c.8.51,1.6,1,2.43,1.48-.11-.23-.22-.44-.32-.68-2.94-6.44-3.11-15.74,3.21-18.93,1.2-.61,2.58-.95,3.57-1.88,2.81-2.66.51-8.15,3.32-10.81,1.58-1.48,4.05-1.38,6-2.26,3.53-1.63,4.67-6.15,4.39-10s-1.56-7.71-1.12-11.58c.7-5.85,5.26-11.78,2.64-17.07-2.93-5.89-11.49-4.94-17.51-7.58-8.41-3.7-11-14.13-16.5-21.51C169,186,157.48,178.7,148.74,180.69c-6.34,1.44-8.52,5.22-9.17,9.87" style="fill:#ebebeb"></path><path d="M129.58,141.44c2.49-2.14,6.8-2.39,8.72.27,1.38,1.9,1.06,4.5.7,6.83-.49,3.12-1,6.25-1.48,9.38a4.88,4.88,0,0,0,.13,2.81c.93,2,4.18,1.6,5.43-.17s1.12-4.21.78-6.36-.78-4.46.06-6.49c2.11-5,9.61-4.27,14-7.54,2.7-2,3.91-5.43,5.51-8.41s4.29-6,7.67-5.81c1.14,0,2.26.47,3.4.42,3.34-.1,5.28-5,2.92-7.35a8.5,8.5,0,0,1-1.48-1.52,2.78,2.78,0,0,1,1.05-3.32,8,8,0,0,1,3.55-1.14l8.56-1.35c3.15-.49,7.18-2.11,6.74-5.26-.38-2.73-4.08-4-4.63-6.65a8.74,8.74,0,0,0-.36-2c-.86-1.73-3.46-1-5.13-.11a4.13,4.13,0,0,0-6.28-2c-1.69,1.39-1.9,3.84-2.49,5.93-1.39,5.07-5.43,8.92-9.27,12.49-1.29,1.18-2.75,2.45-4.5,2.53s-3.59-1.79-2.79-3.33c.55-1.06,2.07-1.67,1.92-2.86-.21-1.47-2.79-1.37-3.29-2.78,1-4.19,5.8-5.92,9.48-8.16a22.93,22.93,0,0,0,9.7-11.91,3.07,3.07,0,0,0,.13-2.46c-.55-1-2-1.22-3.17-1.22-2.84,0-6.36.34-7.4,3-.55,1.41-.15,3-.48,4.5-1,4.39-7,4.88-10.69,7.5-1.44,1-2.56,2.43-4.15,3.21s-3.71.76-5.61.91c-.34,0-.68.06-1,.1q-1.74,2.43-3.36,4.94t-3.12,5.1A131.65,131.65,0,0,0,127.72,139c-1,3.15-2,6.37-2.74,9.62s-1.47,6.57-2,9.92a37.29,37.29,0,0,0,2.41-8.41C126.07,146.91,127.1,143.57,129.58,141.44Z" style="fill:#ebebeb"></path><path d="M387.87,189.1s-3.36,2.45-5.36,2.41c-3.22,0-5.86-2.73-7.15-5.69s-1.6-6.23-2.47-9.33c-.46-1.67-1.24-3.45-2.81-4.19a26.05,26.05,0,0,0-3.36-.76c-4-1.18-5-6.69-8.76-8.41a13.13,13.13,0,0,0-3.76-.78c-5-.59-10.19-2.32-13.34-6.25a23.69,23.69,0,0,0-3.08-3.8c-1.29-1-3.27-1.48-4.52-.43l3.13,6.32a16.64,16.64,0,0,0,3.5,5.26c1.61,1.42,4,2.16,5.9,1.27a3.86,3.86,0,0,1,2-.7,2.1,2.1,0,0,1,1.29.83c2.73,3,1.84,8-.82,11.11s-6.57,4.67-10.35,6.17a8.07,8.07,0,0,1-4.23.82c-2.62-.49-4-3.34-4.77-5.89-1.72-5.67-2.54-11.81-6.05-16.59-1.12-1.5-2.51-2.87-3.19-4.62-.72-1.91-.55-4.12-1.69-5.79s-3.69-2.77-3.86-4.88c-.11-1.48,1.12-2.79,2.47-3.43s2.87-.84,4.27-1.41c.55-.23,1.16-.64,1.18-1.23,0-.88-1.23-1.24-1.54-2.07s.61-1.79,1-2.7c.87-2.07-1.29-4.16-3.38-5s-4.58-1.46-5.56-3.48a12.23,12.23,0,0,1-.67-3c-.49-2.55-2.37-5-4.94-5.45s-5.48,1.88-5.05,4.46c.25,1.42,1.31,2.52,1.88,3.83s.42,3.25-.93,3.67c-2.22.68-4.36-3.38-6.21-2,.76,2.59,1.49,5.19,2.26,7.81-2.92,1.48-6.41-1.2-7.65-4.24s-1.29-6.49-2.77-9.41-5.47-5.11-8-3c-.12,3.76,4.84,5.28,7,8.33,1.58,2.19,1.35,5.76-1,7.16s-6-1-5.14-3.59c.32-.89,1.06-1.63,1.14-2.58.09-1.18-.91-2.13-1.81-2.9l-4.25-3.57a9,9,0,0,0-3-1.9c-2.92-.84-5.83,1.52-7.38,4.12s-2.4,5.69-4.54,7.86c-3.06,3.17-8.87,3.36-11.74,0s-1.42-9.52,2.83-10.73c1.6-.44,3.63-.4,4.48-1.81,1.47-2.52-2.75-5.73-1.29-8.27,1.12-1.94,4.07-1,6.23-1.71s3.34-2.81,4.61-4.67,3.21-3.69,5.4-3.21a6.75,6.75,0,0,1,.24-3.84c.57-1.18,2.17-2,3.23-1.18-1.08,1.77.21,4.24,2.09,5.13s4.08.67,6.15.44,4.67-1,4.84-3.08a7.22,7.22,0,0,1,.06-2c.91-2.47,5.47.93,7.22-1.06,1-1-.1-2.87-1.52-3.21s-2.85.17-4.29.21-3.19-.69-3.25-2.13,1.52-2.43,1.69-3.82c.28-2.37-3.74-3-5.15-1.06s-.91,4.56-.49,6.91.66,5.11-1.08,6.76c-.74,1.12-2.66.53-3.29-.66s-.51-2.62-.62-4-.69-2.87-2-3.23a7.17,7.17,0,0,0-2.81.32c-3.68.44-6.23-4.31-5.07-7.82s4.48-5.79,7.71-7.58c2.36-1.31,5.3-2.54,7.65-1.21,1.09.61,1.86,1.67,2.93,2.3,1.86,1.1,4.16.7,6.3.74a14.75,14.75,0,0,1,9.19,3.57c.95.87,1.84,2.31,1.1,3.34s-3.11,1.33-2.71,2.62a4.58,4.58,0,0,0,5.75-3.7A3.87,3.87,0,0,1,308.12,87a6.84,6.84,0,0,1,10,.83A8.73,8.73,0,0,0,320,90.16c.85.55,2.33.28,2.43-.72a2,2,0,0,0-.17-.93c-.5-1.43-1-2.85-1.54-4.26,2-1.06,4.29.59,5.62,2.36,4.94,6.62,8.47,2.64,15.44,3.72,4.71.72,6.79,3.74,9.45,7.4,8.15,11.24,18.93,20.45,26.34,32.19.78,1.23,1.5,2.47,2.18,3.74h0v0q.94,2.53,1.79,5.11t1.59,5.18a117.13,117.13,0,0,1,3.2,13.11s.93,7.55,1.15,10c.17,1.89.34,3.77.44,5.67s.16,3.8.17,5.72Z" style="fill:#ebebeb"></path><path d="M388.68,180.31s0-.74-.08-2.17c0-.72-.05-1.62-.08-2.68s0-2.3-.19-3.7l-.37-4.68c-.17-1.72-.45-3.6-.7-5.63-.57-4.06-1.46-8.71-2.72-13.88a133.54,133.54,0,0,0-5.5-16.83,128.89,128.89,0,0,0-9.32-18.87,135.54,135.54,0,0,0-34-38.06,133.59,133.59,0,0,0-56.36-25,135.76,135.76,0,0,0-52.44.6A143,143,0,0,0,209,54.5a134.79,134.79,0,0,0-33.9,18.22,147.85,147.85,0,0,0-15.1,13,145.23,145.23,0,0,0-13.22,15.42,132.19,132.19,0,0,0-10.9,17.56c-.77,1.56-1.64,3.08-2.34,4.68s-1.43,3.19-2.16,4.78c-1.29,3.26-2.62,6.52-3.69,9.89a130.09,130.09,0,0,0-5.09,20.7,144.08,144.08,0,0,0-1.76,21.53,145.54,145.54,0,0,0,1.75,21.54,131.18,131.18,0,0,0,5.09,20.7l.85,2.51.43,1.25.48,1.23q1,2.46,1.93,4.9t2.17,4.79c.69,1.6,1.56,3.12,2.33,4.68a130.59,130.59,0,0,0,10.91,17.56A144.27,144.27,0,0,0,160,274.88a145.67,145.67,0,0,0,15.11,13,138.66,138.66,0,0,0,16.48,10.44A141,141,0,0,0,209,306.12a143,143,0,0,0,17.89,5.1,135.83,135.83,0,0,0,52.45.6,133.65,133.65,0,0,0,56.35-25,135.43,135.43,0,0,0,34-38.06,129.4,129.4,0,0,0,9.32-18.87A135,135,0,0,0,384.54,213c1.26-5.17,2.15-9.82,2.72-13.87.25-2,.53-3.91.7-5.63s.26-3.29.37-4.69.17-2.63.19-3.69.06-2,.08-2.68c0-1.43.08-2.17.08-2.17s0,.74,0,2.17c0,.72,0,1.62-.06,2.68s0,2.3-.16,3.7-.22,3-.35,4.69-.43,3.6-.68,5.64a137.19,137.19,0,0,1-2.68,13.9A134.39,134.39,0,0,1,370,248.89a135.46,135.46,0,0,1-34,38.2,133.71,133.71,0,0,1-56.5,25.15,136.53,136.53,0,0,1-52.63-.56,132.35,132.35,0,0,1-35.44-12.92,140.53,140.53,0,0,1-16.55-10.47,146.6,146.6,0,0,1-15.16-13.05,145.28,145.28,0,0,1-13.28-15.48,132.75,132.75,0,0,1-10.95-17.64c-.77-1.56-1.65-3.08-2.34-4.69l-2.17-4.8q-1-2.46-1.94-4.92l-.49-1.24-.43-1.26-.85-2.51a131.22,131.22,0,0,1-5.11-20.79,145.28,145.28,0,0,1-1.76-21.62,145.15,145.15,0,0,1,1.76-21.61,130.59,130.59,0,0,1,5.12-20.78c1.07-3.39,2.41-6.66,3.71-9.93l2.17-4.8c.69-1.61,1.57-3.13,2.34-4.69a132.64,132.64,0,0,1,10.95-17.63,145.28,145.28,0,0,1,13.28-15.48,147.72,147.72,0,0,1,15.15-13.05,134.25,134.25,0,0,1,34-18.27,142.8,142.8,0,0,1,18-5.11,136.49,136.49,0,0,1,52.62-.56,133.86,133.86,0,0,1,56.5,25.14,135.6,135.6,0,0,1,34,38.2,128.18,128.18,0,0,1,9.3,18.93,132.28,132.28,0,0,1,5.46,16.87,136.82,136.82,0,0,1,2.68,13.91c.25,2,.52,3.91.68,5.64s.24,3.29.35,4.69.14,2.63.16,3.7,0,2,.06,2.68C388.68,179.57,388.68,180.31,388.68,180.31Z" style="fill:#263238"></path></g><g id="freepik--Airplane--inject-2"><polygon points="229.01 129.83 228.26 94.33 216.16 100.55 211.04 121.9 229.01 129.83" style="fill:#263238"></polygon><polygon points="215.16 146.05 202.5 152.4 197.73 151.85 206.07 145.28 214.28 143.63 215.16 146.05" style="fill:#263238"></polygon><polygon points="129.07 124.69 81.55 161.59 135.02 127.16 129.07 124.69" style="fill:#e0e0e0"></polygon><path d="M158.75,134.65c-.73.36-69.63,27.78-69.63,27.78l-7.57-.84,52.31-37.16Z" style="fill:#263238"></path><rect x="137.16" y="138.02" width="10.28" height="4.13" rx="2.02" transform="translate(221.18 323.53) rotate(-157.82)" style="fill:#455a64"></rect><rect x="104.19" y="153.74" width="10.28" height="4.13" rx="2.02" transform="translate(151.75 341.35) rotate(-157.82)" style="fill:#455a64"></rect><path d="M114.92,129.08s20.74,2.86,17.84,13.74-23.36-.58-23.36-.58-3-1.74-1.87-7.54S114.92,129.08,114.92,129.08Z" style="fill:#000000"></path><path d="M109.28,134.34a7.1,7.1,0,0,1,2.21-3.59,3.26,3.26,0,0,1,4-.15l.57.37a5.82,5.82,0,0,1,1.18,6.06c.07-.22.14-.44.22-.66a9,9,0,0,1-3.49,5.57,3.23,3.23,0,0,1-1.64.72,2.77,2.77,0,0,1-2.06-.86,5.45,5.45,0,0,1-1.54-3.56A10.41,10.41,0,0,1,109.28,134.34Z" style="fill:#263238"></path><path d="M239.91,134.67s8.47,8.46-7.64,10.53-44,1-75.36-9.71S97.59,109.7,92.7,105.76c-3.63-2.92-9.45-7.93-7.37-15.1A12.25,12.25,0,0,1,93,82.73a36.18,36.18,0,0,1,21.62-1.33C128.62,85.11,239.91,134.67,239.91,134.67Z" style="fill:#fff"></path><path d="M239.91,134.67s-.29-.11-.84-.35l-2.45-1.06-9.42-4.12L192.56,114c-14.64-6.35-32.08-13.92-51.55-22.06-4.87-2-9.86-4.09-15-6.12-2.56-1-5.18-2-7.81-3-1.34-.42-2.67-.9-4-1.28A32.07,32.07,0,0,0,110,80.8,37,37,0,0,0,92.91,83a12.29,12.29,0,0,0-6.48,5.63,10.3,10.3,0,0,0-.59,8.56,18.35,18.35,0,0,0,5.41,7,43.79,43.79,0,0,0,7.35,5c5.12,3,10.32,5.63,15.47,8.16,10.31,5,20.48,9.45,30.31,13.26A245.82,245.82,0,0,0,172.81,140a192.78,192.78,0,0,0,25.63,4.76,159.38,159.38,0,0,0,21.47,1.14c3.16,0,6.11-.21,8.81-.43a48.81,48.81,0,0,0,7.33-1.06,9.9,9.9,0,0,0,5.13-2.67,3.78,3.78,0,0,0,.88-2.12,4.8,4.8,0,0,0-.29-1.91,8.7,8.7,0,0,0-1.28-2.31c-.37-.48-.58-.71-.58-.71a5.21,5.21,0,0,1,.62.67,8.32,8.32,0,0,1,1.34,2.32,4.9,4.9,0,0,1,.32,2,3.93,3.93,0,0,1-.89,2.21c-1.12,1.37-3.06,2.18-5.2,2.77a47.86,47.86,0,0,1-7.36,1.11c-2.7.23-5.65.44-8.83.48a161,161,0,0,1-21.52-1.07,191.55,191.55,0,0,1-25.68-4.71,245.12,245.12,0,0,1-28.5-9.29c-9.85-3.81-20-8.21-30.36-13.25-5.17-2.53-10.37-5.21-15.52-8.18a43.88,43.88,0,0,1-7.42-5.07,18.7,18.7,0,0,1-5.56-7.22,10.84,10.84,0,0,1,.62-9,12.78,12.78,0,0,1,6.76-5.87,37.52,37.52,0,0,1,17.32-2.25,33.48,33.48,0,0,1,4.25.78c1.38.39,2.72.87,4.07,1.29,2.63,1,5.27,2,7.82,3,5.14,2,10.13,4.11,15,6.14,19.46,8.16,36.88,15.76,51.5,22.17L227.28,129l9.38,4.21,2.43,1.1Z" style="fill:#263238"></path><polygon points="213.51 125.77 213.51 129.08 190.75 119.27 194.24 117.37 213.51 125.77" style="fill:#263238"></polygon><polygon points="211.74 123.92 211.74 129.56 209.66 128.65 209.66 122.88 211.74 123.92" style="fill:#fff"></polygon><polygon points="207.36 121.53 207.36 127.16 205.29 126.26 205.29 120.49 207.36 121.53" style="fill:#fff"></polygon><polygon points="202.99 119.85 202.99 125.49 200.91 124.59 200.91 118.81 202.99 119.85" style="fill:#fff"></polygon><polygon points="194.38 116.38 194.38 122.02 192.31 121.11 192.31 115.34 194.38 116.38" style="fill:#fff"></polygon><polygon points="283.02 69.05 185.46 122.15 163.52 111.63 271.31 68.12 283.02 69.05" style="fill:#263238"></polygon><polyline points="167.64 102.99 271.31 68.12 163.52 111.63" style="fill:#fff"></polyline><path d="M163.52,111.62s.17-.09.53-.24l1.57-.66,6.08-2.51,22.39-9.12L268,69.16l3.19-1.28.18.48L197.94,93l-22.17,7.37-6,2-1.57.5c-.35.11-.54.15-.54.15l.53-.2,1.55-.55,6-2.07,22.11-7.52,73.41-24.78.18.49-3.19,1.29-74,29.78-22.45,9-6.12,2.42-1.59.61A5.75,5.75,0,0,1,163.52,111.62Z" style="fill:#263238"></path><rect x="230.17" y="92.4" width="10.28" height="4.13" rx="2.02" transform="translate(368.54 310.2) rotate(-143.57)" style="fill:#455a64"></rect><path d="M271.9,119.87c-.33.22-31,16-31,16l-6.7-3.76,29.39-12.7Z" style="fill:#263238"></path><polygon points="263.02 119.42 260.91 119.42 230.58 130.53 234.18 132.12 263.02 119.42" style="fill:#fff"></polygon><polygon points="164.16 104.38 161.31 106.53 115.73 87.06 116.25 83.85 164.16 104.38" style="fill:#263238"></polygon><polygon points="161.63 101.83 161.63 107.47 159.56 106.56 159.56 100.79 161.63 101.83" style="fill:#fff"></polygon><polygon points="156.98 99.72 156.98 105.36 154.9 104.46 154.9 98.68 156.98 99.72" style="fill:#fff"></polygon><polygon points="152.33 97.61 152.33 103.25 150.25 102.35 150.25 96.58 152.33 97.61" style="fill:#fff"></polygon><polygon points="147.67 95.5 147.67 101.14 145.6 100.24 145.6 94.47 147.67 95.5" style="fill:#fff"></polygon><polygon points="143.02 93.39 143.02 99.03 140.95 98.13 140.95 92.36 143.02 93.39" style="fill:#fff"></polygon><polygon points="138.37 91.28 138.37 96.92 136.29 96.02 136.29 90.25 138.37 91.28" style="fill:#fff"></polygon><polygon points="133.72 89.55 133.72 95.19 131.64 94.29 131.64 88.52 133.72 89.55" style="fill:#fff"></polygon><polygon points="198.77 118.11 198.77 123.75 196.69 122.84 196.69 117.07 198.77 118.11" style="fill:#fff"></polygon><polygon points="129.07 87.57 129.07 93.21 126.99 92.31 126.99 86.53 129.07 87.57" style="fill:#fff"></polygon><polygon points="124.35 85.71 124.35 91.35 122.28 90.44 122.28 84.67 124.35 85.71" style="fill:#fff"></polygon><polygon points="119.64 83.85 119.64 89.49 117.56 88.58 117.56 82.81 119.64 83.85" style="fill:#fff"></polygon><path d="M105.48,84.27S97.69,82,93,82.73a18.87,18.87,0,0,1,4.46-1.36s2.94-1.06,8.79.51Z" style="fill:#263238"></path><polygon points="197.73 151.85 203.54 145.45 206.32 145.67 197.73 151.85" style="fill:#e0e0e0"></polygon><path d="M197.55,152l.16-.17,5.82-6.4h0l2.86.22-.06,0Zm6-6.52-5.64,6.21,8.34-6Z" style="fill:#263238"></path><rect x="209.77" y="103.29" width="10.28" height="4.13" rx="2.02" transform="translate(325.26 317.74) rotate(-143.57)" style="fill:#455a64"></rect><rect x="251.77" y="80.8" width="10.28" height="4.13" rx="2.02" transform="translate(414.41 302.09) rotate(-143.57)" style="fill:#455a64"></rect><path d="M193.09,92.06s20,6.31,15.27,16.54-22.93-4.5-22.93-4.5-2.69-2.23-.57-7.75S193.09,92.06,193.09,92.06Z" style="fill:#000000"></path><path d="M186.64,96.29a7.25,7.25,0,0,1,2.78-3.16,3.26,3.26,0,0,1,3.92.52l.51.46a5.82,5.82,0,0,1,.14,6.17l.32-.61a8.94,8.94,0,0,1-4.37,4.9,3.37,3.37,0,0,1-1.74.44,2.84,2.84,0,0,1-1.88-1.2,5.43,5.43,0,0,1-.92-3.77A10.5,10.5,0,0,1,186.64,96.29Z" style="fill:#263238"></path><g style="opacity:0.1"><path d="M99.63,96.49c2.81-.79,5.34.7,7.67,2.1,36.63,22.08,77.63,39.71,120.36,39.61a2.39,2.39,0,0,1,2.23,1.49h0a2.4,2.4,0,0,1-2.13,3.32A201.39,201.39,0,0,1,99.51,103.7c-1.38-1-2.86-2.26-2.63-4.17A3.7,3.7,0,0,1,99.63,96.49Z"></path></g></g><g id="freepik--Locators--inject-2"><path d="M165.14,204.86a9.87,9.87,0,1,0-18.37,5h0l0,0c.38.64.85,1.09,1.33,1.76l5.73,7.59a1.78,1.78,0,0,0,2.84,0l5.64-7.46a22,22,0,0,0,1.43-1.9l0,0h0A9.78,9.78,0,0,0,165.14,204.86Zm-9.87,4.29a4.34,4.34,0,1,1,4.34-4.34A4.34,4.34,0,0,1,155.27,209.15Z" style="fill:#000000"></path><path d="M387.5,118.12a21.91,21.91,0,1,0-40.8,11.07h0l.07.08c.84,1.42,1.89,2.43,2.95,3.92L362.43,150a4,4,0,0,0,6.32,0l12.51-16.58a47.77,47.77,0,0,0,3.18-4.21l.05-.06h0A21.78,21.78,0,0,0,387.5,118.12Zm-21.91,9.54a9.65,9.65,0,1,1,9.64-9.65A9.65,9.65,0,0,1,365.59,127.66Z" style="fill:#000000"></path></g><g id="freepik--Pencil--inject-2"><polygon points="89.14 291.16 101.66 316.19 157.1 362.79 170.74 345.04 116.3 299.6 89.14 291.16" style="fill:#000000"></polygon><g style="opacity:0.7000000000000001"><path d="M116.3,299.6a1.66,1.66,0,0,1-2.08,1.6,5,5,0,0,1-5.44,7.71,5.81,5.81,0,0,1-7.21,7.09L89.14,291.16Z" style="fill:#fff"></path></g><path d="M94.18,301.23s5.28.9,6.09-6.61l-11.13-3.46Z" style="fill:#000000"></path><g style="opacity:0.30000000000000004"><path d="M108.78,308.91l54.6,45.19-6.27,8.69-55.45-46.6-.09-.19a5.62,5.62,0,0,0,2.55.14,6,6,0,0,0,3-1.47,5.74,5.74,0,0,0,1.83-3.59A5.87,5.87,0,0,0,108.78,308.91Z"></path></g><g style="opacity:0.30000000000000004"><path d="M114.22,301.2,169,347.32l1.75-2.28L116.3,299.6a1.76,1.76,0,0,1-1.68,1.67A2.11,2.11,0,0,1,114.22,301.2Z"></path></g><path d="M102.75,307.66s0,.12.25.17a.62.62,0,0,0,.71-.4,2.39,2.39,0,0,0-.07-1.41,1.43,1.43,0,0,0-.49-.71,1,1,0,0,0-.92-.15,1.27,1.27,0,0,0-.67.79,4.48,4.48,0,0,0-.21,1.18,6.33,6.33,0,0,0,.38,2.61,1.62,1.62,0,0,0,.91,1,1.44,1.44,0,0,0,1.35-.3,3.88,3.88,0,0,0,1.05-2.84,5.56,5.56,0,0,0-2.88-5,1.45,1.45,0,0,0-1.27,0,2.65,2.65,0,0,0-.92.87,7.6,7.6,0,0,0-1,2.11,8.55,8.55,0,0,0-.27,3.33,8.46,8.46,0,0,0,.16.91,2.28,2.28,0,0,1,.06.31,6.2,6.2,0,0,1-.28-1.21,8.23,8.23,0,0,1,.23-3.37,7.38,7.38,0,0,1,1-2.15,2.79,2.79,0,0,1,.95-.92,1.6,1.6,0,0,1,1.4,0,5.69,5.69,0,0,1,3,5.13,5.43,5.43,0,0,1-.27,1.61,2.79,2.79,0,0,1-.85,1.35,1.59,1.59,0,0,1-1.49.32,1.76,1.76,0,0,1-1-1.07,6.69,6.69,0,0,1-.37-2.68,4.4,4.4,0,0,1,.23-1.21,1.41,1.41,0,0,1,.74-.86,1.06,1.06,0,0,1,1,.18,1.5,1.5,0,0,1,.53.76,2.43,2.43,0,0,1,0,1.46.65.65,0,0,1-.77.41A.35.35,0,0,1,102.75,307.66Z" style="fill:#fff"></path><path d="M105,296.34s-.12.29-.23.85a6.18,6.18,0,0,0,.08,2.39,15.18,15.18,0,0,0,1.25,3.34,13.11,13.11,0,0,1,1.4,4.18,7.51,7.51,0,0,1-.83,4.29,7.43,7.43,0,0,1-2.4,2.67,7.59,7.59,0,0,1-2.21,1,4.32,4.32,0,0,1-.88.16l.23-.05L102,315a7.68,7.68,0,0,0,2.16-1,7.36,7.36,0,0,0,2.34-2.64,7.55,7.55,0,0,0,.81-4.22A13.58,13.58,0,0,0,106,303a14.93,14.93,0,0,1-1.23-3.38,6,6,0,0,1,0-2.42A3.39,3.39,0,0,1,105,296.34Z" style="fill:#fff"></path><path d="M111.28,297.94a2.34,2.34,0,0,0-1,1.28,12.91,12.91,0,0,0-.35,4,21.94,21.94,0,0,0,.51,4.05c.11.51.22.92.29,1.21a2.71,2.71,0,0,1,.11.44,2.87,2.87,0,0,1-.17-.43c-.09-.28-.21-.68-.34-1.19a20.78,20.78,0,0,1-.56-4.07,20.54,20.54,0,0,1,.06-2.26,6.63,6.63,0,0,1,.34-1.82,2.31,2.31,0,0,1,.73-1A1.27,1.27,0,0,1,111.28,297.94Z" style="fill:#fff"></path><path d="M113.67,307.67a4.09,4.09,0,0,1-.4-.83,5,5,0,0,1-.42-2.19,2.58,2.58,0,0,1,1-2,1.9,1.9,0,0,1,.62-.3.79.79,0,0,1,.25,0,2.93,2.93,0,0,0-.8.42,2.57,2.57,0,0,0-.92,1.89,5.79,5.79,0,0,0,.37,2.14A7.71,7.71,0,0,1,113.67,307.67Z" style="fill:#fff"></path><path d="M101.38,294.91s0,0,.06.12a2.47,2.47,0,0,1,.14.36,1.59,1.59,0,0,1,.12.6,1.79,1.79,0,0,1-.24.78,20.16,20.16,0,0,1-1.11,1.76,15.25,15.25,0,0,0-1.16,2.25,29.24,29.24,0,0,0-1.35,4.4c-.12.5-.22.95-.32,1.37s-.12.5-.13.5a1.88,1.88,0,0,1,.07-.51c.06-.33.15-.8.28-1.38a24.91,24.91,0,0,1,1.31-4.44,14.18,14.18,0,0,1,1.18-2.27c.43-.66.87-1.21,1.14-1.73a1.48,1.48,0,0,0,.15-1.31C101.43,295.09,101.37,294.92,101.38,294.91Z" style="fill:#fff"></path></g><g id="freepik--Passport--inject-2"><path d="M145.16,233H199a8.47,8.47,0,0,1,8.47,8.47v69.58a8.47,8.47,0,0,1-8.47,8.47H145.16a0,0,0,0,1,0,0V233A0,0,0,0,1,145.16,233Z" transform="translate(-106.21 110.17) rotate(-27)" style="fill:#455a64"></path><path d="M189.3,288.44a13,13,0,0,1-2.74,1.87,12.86,12.86,0,0,1-10.16.66,14,14,0,0,1-7.86-6.9,13.51,13.51,0,0,1,5.54-18.25,12.88,12.88,0,0,1,10.17-.65,14.14,14.14,0,0,1,8.82,17.3A13.15,13.15,0,0,1,189.3,288.44ZM172,268.39a12.73,12.73,0,0,0-2.61,15.25,13,13,0,0,0,7.32,6.43,11.92,11.92,0,0,0,15.45-7.87,13,13,0,0,0-.91-9.7h0a13,13,0,0,0-7.31-6.44,12,12,0,0,0-9.42.61A11.69,11.69,0,0,0,172,268.39Z" style="fill:#fff"></path><rect x="167.25" y="277.33" width="25.66" height="0.95" transform="translate(-106.5 112.04) rotate(-27)" style="fill:#fff"></rect><rect x="179.54" y="264.98" width="0.95" height="26.51" transform="translate(-106.67 112) rotate(-26.99)" style="fill:#fff"></rect><path d="M186.41,290.17l-.89-.32a24.47,24.47,0,0,0,1.73-9.7,15,15,0,0,0-4.32-9.38c-2.41-2.27-5.83-3.23-8.85-4.07l.26-.92c3.12.88,6.66,1.86,9.25,4.3a15.75,15.75,0,0,1,4.61,10A25.93,25.93,0,0,1,186.41,290.17Z" style="fill:#fff"></path><path d="M185.92,290.51a22.18,22.18,0,0,1-9.37-4.11,15.82,15.82,0,0,1-5.39-9.63c-.45-3.51,1-7.31,2.1-10.37l.89.33c-1.1,3-2.46,6.64-2.05,9.92a15,15,0,0,0,5.06,9,21.17,21.17,0,0,0,9,3.92Z" style="fill:#fff"></path><path d="M183.4,269.32a28.17,28.17,0,0,1-15.94,7l-.09-.94a27.24,27.24,0,0,0,18-9.5l.72.61A26.37,26.37,0,0,1,183.4,269.32Z" style="fill:#fff"></path><path d="M193.1,280.77c-7.75.77-14.55,4-18.65,8.89l-.73-.61C178,284,185,280.62,193,279.83Z" style="fill:#fff"></path><path d="M172.37,327c-.06,0-8.87-17.14-19.68-38.35s-19.53-38.44-19.46-38.47,8.87,17.14,19.68,38.35S172.43,327,172.37,327Z" style="fill:#263238"></path><path d="M208.85,297.1c0,.06-6.62,3.51-14.85,7.7s-14.93,7.55-15,7.49,6.62-3.51,14.85-7.71S208.81,297,208.85,297.1Z" style="fill:#fff"></path><path d="M206.61,301.8c0,.07-4.9,2.64-11,5.75s-11.09,5.59-11.12,5.52,4.9-2.63,11-5.74S206.58,301.74,206.61,301.8Z" style="fill:#fff"></path><path d="M155.07,257.77a1.64,1.64,0,0,1-.86,2.34l-.64.32.54,1.08-1,.53L151,257.93l1.67-.85A1.65,1.65,0,0,1,155.07,257.77Zm-1,.53a.63.63,0,0,0-1-.27l-.58.29.61,1.2.58-.29A.63.63,0,0,0,154,258.3Z" style="fill:#fff"></path><path d="M158.76,258.14l-1.56.79.12.94-1.06.54-.47-4.93,1-.52,3.71,3.28-1.08.55Zm-.74-.7-1.14-1.08.19,1.56Z" style="fill:#fff"></path><path d="M160.38,257.85l-.09-1a2.47,2.47,0,0,0,1.41-.21c.43-.22.53-.44.43-.64-.33-.65-2.18.89-2.95-.64-.38-.73-.15-1.6.94-2.16a2.89,2.89,0,0,1,1.52-.32l.12,1a2.3,2.3,0,0,0-1.18.2c-.44.22-.51.47-.41.67.32.63,2.17-.9,2.94.61.36.72.14,1.6-1,2.15A3,3,0,0,1,160.38,257.85Z" style="fill:#fff"></path><path d="M163.77,256.12l-.09-1a2.39,2.39,0,0,0,1.41-.21c.43-.22.53-.44.43-.64-.33-.65-2.17.89-3-.64-.37-.73-.14-1.6,1-2.15a2.74,2.74,0,0,1,1.51-.32l.12,1a2.3,2.3,0,0,0-1.18.2c-.43.22-.51.47-.4.67.32.63,2.16-.9,2.93.61.36.72.14,1.6-.95,2.15A3,3,0,0,1,163.77,256.12Z" style="fill:#fff"></path><path d="M169.6,250.36a1.64,1.64,0,0,1-.86,2.34l-.64.33.55,1.07-1,.53-2.09-4.1,1.68-.86A1.64,1.64,0,0,1,169.6,250.36Zm-1,.54a.62.62,0,0,0-1-.28l-.58.29.61,1.21.58-.3A.62.62,0,0,0,168.55,250.9Z" style="fill:#fff"></path><path d="M170.24,250.71a2.29,2.29,0,1,1,3.12,1.09A2.27,2.27,0,0,1,170.24,250.71Zm3-1.55a1.13,1.13,0,1,0-.4,1.68A1.17,1.17,0,0,0,173.27,249.16Z" style="fill:#fff"></path><path d="M177,248.49l-.57.29.56,1.09-1,.53-2.09-4.1,1.67-.85a1.65,1.65,0,0,1,2.41.68,1.54,1.54,0,0,1-.06,1.66l1.45.89-1.11.57Zm-1.06-2.1-.58.3.61,1.2.58-.3a.67.67,0,1,0-.61-1.2Z" style="fill:#fff"></path><path d="M178.89,244.87l-1.12.58-.47-.92,3.28-1.68.47.92-1.12.57,1.62,3.19-1,.52Z" style="fill:#fff"></path><path d="M202,269.15a3.9,3.9,0,0,1-3,4.68S198.32,270.05,202,269.15Z" style="fill:#fff"></path><path d="M202.79,274.9a3.41,3.41,0,0,1-3.91,2.92A3.55,3.55,0,0,1,202.79,274.9Z" style="fill:#fff"></path><path d="M202.09,279.89a3.64,3.64,0,0,1-4.86,1.87A3.79,3.79,0,0,1,202.09,279.89Z" style="fill:#fff"></path><path d="M195.62,273.36a3.41,3.41,0,0,1,3.45,3.45A3.55,3.55,0,0,1,195.62,273.36Z" style="fill:#fff"></path><path d="M196.82,277.13a2.58,2.58,0,0,1,1,3.59A2.69,2.69,0,0,1,196.82,277.13Z" style="fill:#fff"></path><path d="M198.79,266a3.1,3.1,0,0,1-1,4.32A3.23,3.23,0,0,1,198.79,266Z" style="fill:#fff"></path><path d="M193.4,265.46a3,3,0,0,1,3.14,3A3.14,3.14,0,0,1,193.4,265.46Z" style="fill:#fff"></path><path d="M194,270a3.56,3.56,0,0,1,4.6,2.23A3.72,3.72,0,0,1,194,270Z" style="fill:#fff"></path><path d="M195.52,283.64l0,0,.1-.09c.08-.07.21-.18.37-.34a9.3,9.3,0,0,0,1.19-1.41,10.55,10.55,0,0,0,1.24-2.45,13.24,13.24,0,0,0,.43-1.57l.07-.42,0-.21,0-.21,0-.44,0-.45v-.88l0-.43c0-.07,0-.14,0-.21l0-.22-.05-.41-.08-.4,0-.2a1.46,1.46,0,0,0-.05-.2l-.09-.38a11.56,11.56,0,0,0-1-2.55,10.71,10.71,0,0,0-1-1.54c-.13-.17-.25-.3-.32-.39l-.08-.1,0,0,0,0,.09.1.32.39a10.79,10.79,0,0,1,1,1.54,11.56,11.56,0,0,1,1,2.55c0,.13.07.26.1.38s0,.13,0,.2l0,.2c0,.13.05.27.08.4l0,.42,0,.21c0,.07,0,.14,0,.22l0,.43c0,.14,0,.29,0,.44V276l0,.44,0,.44,0,.22,0,.21-.07.42a11.57,11.57,0,0,1-.43,1.57,10.35,10.35,0,0,1-1.24,2.45,8.75,8.75,0,0,1-1.21,1.41c-.16.16-.29.26-.38.34l-.1.08Z" style="fill:#fff"></path><path d="M160.45,290.33a3.89,3.89,0,0,0,5.57.28S163.34,287.87,160.45,290.33Z" style="fill:#fff"></path><path d="M164.64,294.34a3.41,3.41,0,0,0,4.66-1.44A3.54,3.54,0,0,0,164.64,294.34Z" style="fill:#fff"></path><path d="M169.08,296.7a3.64,3.64,0,0,0,4.38-2.83S169.93,293.26,169.08,296.7Z" style="fill:#fff"></path><path d="M167.61,287.64a3.41,3.41,0,0,0,.76,4.82A3.56,3.56,0,0,0,167.61,287.64Z" style="fill:#fff"></path><path d="M170,290.82a2.59,2.59,0,0,0,2.3,2.95A2.69,2.69,0,0,0,170,290.82Z" style="fill:#fff"></path><path d="M159.82,285.9a3.1,3.1,0,0,0,4.07,1.75A3.23,3.23,0,0,0,159.82,285.9Z" style="fill:#fff"></path><path d="M162.52,281.2a3,3,0,0,0,.56,4.28A3.14,3.14,0,0,0,162.52,281.2Z" style="fill:#fff"></path><path d="M165.84,284.31a3.58,3.58,0,0,0-.9,5A3.73,3.73,0,0,0,165.84,284.31Z" style="fill:#fff"></path><path d="M176,293.59h-.05l-.13,0c-.11,0-.28.07-.49.1a10.7,10.7,0,0,1-6.07-.88l-.38-.19-.2-.09a1.18,1.18,0,0,0-.19-.11l-.38-.22-.37-.24-.18-.13-.18-.13-.35-.26-.34-.28-.16-.14-.15-.15-.31-.28-.28-.3-.14-.15-.13-.15-.25-.3a11.31,11.31,0,0,1-1.47-2.32,11.82,11.82,0,0,1-.65-1.73c-.06-.21-.1-.38-.12-.49l0-.13v0l0,.13c0,.11.06.28.11.49a11.86,11.86,0,0,0,.65,1.74,10.86,10.86,0,0,0,1.46,2.33c.08.1.17.2.25.31l.13.15.14.14.29.3.3.29.16.15.16.14.33.28.35.26.18.13.19.13.37.24.39.22a1.18,1.18,0,0,0,.19.11l.19.1.38.19a13.08,13.08,0,0,0,1.53.57,10.3,10.3,0,0,0,2.71.43,8.76,8.76,0,0,0,1.85-.15c.22,0,.38-.08.49-.1l.13,0Z" style="fill:#fff"></path></g><g id="freepik--Book--inject-2"><path d="M409.4,353.5l-2.27,5.7S374,334,348.52,336.1h0a5.23,5.23,0,0,1-4.51.83l-9.5-2.36a5.33,5.33,0,0,1-4-3.87h0s-19.26-15.92-45.37-13.45l-9.73.41,41.16-68.19,112.34,18.11Z" style="fill:#455a64"></path><path d="M418.08,347.3l-3.79,10.36s-31-30.42-74.25-23.72L366,286.77S418.75,335.73,418.08,347.3Z" style="fill:#ebebeb"></path><path d="M449.92,273.86s-35.12-42.79-81.6-14.39L340,333.94s51.75-20.76,81.42,17Z" style="fill:#fff"></path><path d="M449.92,273.86s-.15.48-.49,1.41-.83,2.32-1.48,4.11L442.24,295c-5,13.51-12.05,32.79-20.57,56l-.13.37-.25-.31a57.45,57.45,0,0,0-34.69-21.16,79,79,0,0,0-22.76-1,94.56,94.56,0,0,0-11.69,1.83,89.36,89.36,0,0,0-11.61,3.3l-.41.16-.54.21.2-.54c10.29-27.07,20-52.54,28.31-74.46l0-.07.07,0A67.72,67.72,0,0,1,386,251.51a55.6,55.6,0,0,1,32.64,1.09,67.91,67.91,0,0,1,12,5.45,78.55,78.55,0,0,1,14.78,11c1.55,1.47,2.68,2.67,3.42,3.49.37.41.64.73.82.95a3.9,3.9,0,0,1,.26.33l-.29-.31-.85-.92c-.75-.8-1.89-2-3.45-3.43a80.73,80.73,0,0,0-14.83-10.92,68.14,68.14,0,0,0-11.95-5.36,55.3,55.3,0,0,0-32.43-1,67.2,67.2,0,0,0-17.68,7.75l.09-.11c-8.31,21.92-18,47.4-28.25,74.47l-.34-.33.42-.16A89.36,89.36,0,0,1,352,330.21a95.36,95.36,0,0,1,11.76-1.83,79.31,79.31,0,0,1,22.9,1,57.74,57.74,0,0,1,34.94,21.37l-.38.06L442,295l5.83-15.62c.68-1.8,1.2-3.18,1.56-4.12S449.92,273.86,449.92,273.86Z" style="fill:#263238"></path><path d="M339.6,333.8s-31.21-32.6-65.86-20.29l30.64-66.41,63,14.94Z" style="fill:#f5f5f5"></path><path d="M339.78,334.72l-.54-.57c-.31-.32-31.38-32.23-65.34-20.17l-1.12.4,31.31-67.87.4.1L368,261.69l-.21.53Zm-50-24.46c25.25,0,46.06,19.13,49.67,22.65l27.26-70.52-62-14.71-30,65A48.09,48.09,0,0,1,289.74,310.26Z" style="fill:#263238"></path><path d="M368.32,259.47s-6.32-29.08-35.13-35.91l-18.61-3.88-32.37,66.23s46.51,10.09,57.88,47.58Z" style="fill:#fff"></path><path d="M368.32,259.47a3.25,3.25,0,0,1-.12.35l-.37,1c-.34.92-.83,2.25-1.48,4l-5.68,15.09c-4.94,13-12,31.52-20.36,53.66l-.24.62-.2-.64a56.34,56.34,0,0,0-7.07-14.8c-.76-1.2-1.67-2.31-2.52-3.49s-1.8-2.27-2.82-3.33a68.73,68.73,0,0,0-6.4-6.24c-9.2-7.85-20.7-13.9-33.18-17.93-1.91-.6-3.83-1.16-5.73-1.6l-.32-.07.14-.3c11.92-24.33,23-47,32.41-66.2l.08-.16.17,0,15.16,3.17a49.68,49.68,0,0,1,13.29,4.28,46.19,46.19,0,0,1,17,14.75,55.73,55.73,0,0,1,6.77,12.87c.58,1.58.94,2.82,1.17,3.65s.3,1.28.3,1.28,0-.1-.1-.31-.15-.54-.27-1c-.24-.83-.63-2-1.23-3.62a56.39,56.39,0,0,0-6.85-12.77,46.18,46.18,0,0,0-16.95-14.58,49.53,49.53,0,0,0-13.21-4.2l-15.17-3.14.24-.12L282.44,286l-.18-.37c1.93.45,3.85,1,5.78,1.62a105.91,105.91,0,0,1,17.9,7.57,87.31,87.31,0,0,1,15.45,10.47,69.7,69.7,0,0,1,6.44,6.29c1,1.07,1.9,2.25,2.84,3.36s1.76,2.31,2.53,3.52a57.13,57.13,0,0,1,7.11,14.94l-.43,0c8.47-22.08,15.55-40.56,20.52-53.53,2.5-6.47,4.46-11.57,5.81-15.06.67-1.73,1.19-3.06,1.55-4l.41-1C368.26,259.59,368.32,259.47,368.32,259.47Z" style="fill:#263238"></path><path d="M321.52,234.65c0,.23,2.94.72,7.46,2.28a58.77,58.77,0,0,1,16.23,8.69,51.26,51.26,0,0,1,12,12.91c2.35,3.71,3.29,6.2,3.56,6.15.1,0-.06-.65-.44-1.79a26.6,26.6,0,0,0-2.16-4.72,45.77,45.77,0,0,0-12-13.5,53.34,53.34,0,0,0-16.91-8.62,37.75,37.75,0,0,0-5.64-1.26A6.34,6.34,0,0,0,321.52,234.65Z" style="fill:#e0e0e0"></path><path d="M316.6,241.74c0,.23,2.93.72,7.46,2.28a58.77,58.77,0,0,1,16.23,8.69,51.26,51.26,0,0,1,12,12.91c2.35,3.71,3.29,6.21,3.56,6.15.1,0-.06-.65-.44-1.79a26.58,26.58,0,0,0-2.16-4.71,45.66,45.66,0,0,0-12-13.51,53.08,53.08,0,0,0-16.91-8.61,35.36,35.36,0,0,0-5.64-1.26A6.22,6.22,0,0,0,316.6,241.74Z" style="fill:#e0e0e0"></path><path d="M313.22,250.13c0,.24,2.93.73,7.46,2.29a58.77,58.77,0,0,1,16.23,8.69,51.28,51.28,0,0,1,12,12.91c2.35,3.71,3.29,6.2,3.55,6.15s-.05-.65-.43-1.79a26.6,26.6,0,0,0-2.16-4.72,45.68,45.68,0,0,0-12-13.5,53.2,53.2,0,0,0-16.9-8.62,38,38,0,0,0-5.64-1.26A6.57,6.57,0,0,0,313.22,250.13Z" style="fill:#e0e0e0"></path><path d="M308.63,257.45c0,.24,2.93.73,7.46,2.29a58.5,58.5,0,0,1,16.23,8.69,51.28,51.28,0,0,1,12,12.91c2.35,3.71,3.29,6.2,3.55,6.15.11,0-.05-.65-.43-1.79a26.6,26.6,0,0,0-2.16-4.72,45.68,45.68,0,0,0-12-13.5,53,53,0,0,0-16.9-8.62,38,38,0,0,0-5.64-1.26A6.57,6.57,0,0,0,308.63,257.45Z" style="fill:#e0e0e0"></path><path d="M303.61,265.11c0,.23,2.93.72,7.46,2.28a58.77,58.77,0,0,1,16.23,8.69,51.45,51.45,0,0,1,12,12.91c2.35,3.71,3.29,6.21,3.55,6.15s-.05-.65-.43-1.79a26.58,26.58,0,0,0-2.16-4.71,45.58,45.58,0,0,0-12-13.51,52.94,52.94,0,0,0-16.9-8.61,35.6,35.6,0,0,0-5.64-1.26A6.22,6.22,0,0,0,303.61,265.11Z" style="fill:#e0e0e0"></path><path d="M297.57,273.54c0,.24,3.19.76,8.1,2.53a71.11,71.11,0,0,1,8.35,3.64,85.62,85.62,0,0,1,9.42,5.78,77.59,77.59,0,0,1,8.27,7,52.17,52.17,0,0,1,5.55,6.56c2.79,3.94,3.77,6.66,4.05,6.6.1,0-.09-.7-.53-1.94a13.72,13.72,0,0,0-1-2.21,23,23,0,0,0-1.62-2.85,44.29,44.29,0,0,0-5.44-6.88,66.82,66.82,0,0,0-8.4-7.24,73.71,73.71,0,0,0-9.71-5.84A60.74,60.74,0,0,0,306,275.2a35,35,0,0,0-3.46-.95,21.76,21.76,0,0,0-2.65-.52A7.56,7.56,0,0,0,297.57,273.54Z" style="fill:#e0e0e0"></path><path d="M294.66,280.93c0,.24,3.21.75,8.1,2.6a68.4,68.4,0,0,1,8.3,3.83,83.27,83.27,0,0,1,9.26,6.05,78.37,78.37,0,0,1,8.07,7.22,55.93,55.93,0,0,1,5.42,6.68c2.74,4,3.74,6.72,4,6.67.1,0-.09-.71-.52-2a13.84,13.84,0,0,0-1-2.23,21.23,21.23,0,0,0-1.58-2.87,47.8,47.8,0,0,0-5.29-7,69.77,69.77,0,0,0-8.19-7.47,74.77,74.77,0,0,0-9.56-6.12,59.55,59.55,0,0,0-8.63-3.67,31.4,31.4,0,0,0-3.47-1,19,19,0,0,0-2.66-.54A7.48,7.48,0,0,0,294.66,280.93Z" style="fill:#e0e0e0"></path><path d="M359.32,318.73c.16.2,2.78-1.32,7.6-2.75a49.3,49.3,0,0,1,20-1.52,54.52,54.52,0,0,1,19.65,6.67c4.64,2.66,7.09,4.84,7.27,4.68s-.48-.66-1.59-1.64a39.44,39.44,0,0,0-5.12-3.79A50.89,50.89,0,0,0,387,313.15a45.43,45.43,0,0,0-20.57,2,31.51,31.51,0,0,0-5.41,2.41C359.84,318.2,359.26,318.66,359.32,318.73Z" style="fill:#e0e0e0"></path><path d="M363.23,309.26c.16.2,2.78-1.32,7.6-2.75a49.28,49.28,0,0,1,20-1.52,54.52,54.52,0,0,1,19.65,6.67c4.64,2.65,7.09,4.84,7.26,4.68s-.47-.66-1.58-1.65a38.63,38.63,0,0,0-5.12-3.78,50.73,50.73,0,0,0-20.15-7.23,45.59,45.59,0,0,0-20.57,1.94,32.2,32.2,0,0,0-5.41,2.42C363.75,308.73,363.17,309.19,363.23,309.26Z" style="fill:#e0e0e0"></path><path d="M367.13,299.79c.16.2,2.78-1.33,7.61-2.75a49.05,49.05,0,0,1,20-1.52,54.32,54.32,0,0,1,19.66,6.67c4.63,2.65,7.08,4.84,7.26,4.67s-.47-.65-1.58-1.64a38.18,38.18,0,0,0-5.13-3.78,50.46,50.46,0,0,0-20.15-7.23,45.54,45.54,0,0,0-20.56,1.94,32.2,32.2,0,0,0-5.41,2.42C367.66,299.26,367.07,299.72,367.13,299.79Z" style="fill:#e0e0e0"></path><path d="M371,290.31c.16.21,2.78-1.32,7.61-2.75a49.25,49.25,0,0,1,20-1.51,54.33,54.33,0,0,1,19.66,6.66c4.63,2.66,7.08,4.84,7.26,4.68s-.47-.65-1.58-1.64a40.4,40.4,0,0,0-5.13-3.79,50.83,50.83,0,0,0-20.15-7.23,45.67,45.67,0,0,0-20.56,1.95,31.94,31.94,0,0,0-5.42,2.42C371.57,289.79,371,290.24,371,290.31Z" style="fill:#e0e0e0"></path><path d="M375,280.84c.16.21,2.78-1.32,7.6-2.75a49.15,49.15,0,0,1,20-1.51,54.33,54.33,0,0,1,19.66,6.66c4.63,2.66,7.08,4.84,7.26,4.68s-.47-.66-1.58-1.64a40.4,40.4,0,0,0-5.13-3.79,50.89,50.89,0,0,0-20.15-7.23,45.43,45.43,0,0,0-20.57,1.95,32.25,32.25,0,0,0-5.41,2.41C375.48,280.31,374.89,280.77,375,280.84Z" style="fill:#e0e0e0"></path><path d="M378.86,271.37c.16.2,2.78-1.32,7.6-2.75a49.3,49.3,0,0,1,20-1.52,54.45,54.45,0,0,1,19.65,6.67c4.64,2.65,7.09,4.84,7.27,4.68s-.48-.66-1.58-1.65A41.52,41.52,0,0,0,426.7,273a50.73,50.73,0,0,0-20.15-7.23A45.43,45.43,0,0,0,386,267.74a31.51,31.51,0,0,0-5.41,2.41C379.38,270.84,378.8,271.3,378.86,271.37Z" style="fill:#e0e0e0"></path></g><g id="freepik--Character--inject-2"><rect x="126.65" y="418" width="15.25" height="54.74" rx="7.2" style="fill:#263238"></rect><path d="M187.81,484.12s-19.88,0-28.65,0-18.21,1-22-4.18c-3-4-2.46-9.39-2.23-14.23q1-20.43,1.93-40.86c.17-3.69.37-7.46,1.91-10.91s8.49-51.18,12.67-52h35.42Z" style="fill:#263238"></path><path d="M180.36,462.29c0,.14-9.49.26-21.2.26s-21.2-.12-21.2-.26,9.49-.27,21.2-.27S180.36,462.14,180.36,462.29Z" style="fill:#455a64"></path><path d="M163.47,407c.15,0,.26,12.36.26,27.61s-.11,27.62-.26,27.62-.26-12.36-.26-27.62S163.33,407,163.47,407Z" style="fill:#455a64"></path><path d="M137,469.52a1.69,1.69,0,0,1-.06-.51c0-.39,0-.87-.07-1.45-.06-1.27-.11-3.1-.16-5.36-.1-4.52-.16-10.77-.1-17.67s.22-13.16.4-17.68c.08-2.26.17-4.09.24-5.35l.1-1.46a1.82,1.82,0,0,1,.07-.5,1.81,1.81,0,0,1,0,.51v1.45c0,1.35,0,3.16-.09,5.36-.06,4.59-.14,10.8-.24,17.67s0,13.07-.05,17.67c0,2.2,0,4,0,5.36,0,.58,0,1.06,0,1.45A2,2,0,0,1,137,469.52Z" style="fill:#455a64"></path><path d="M332.89,292.88s15.55,3,23.47,28.07c9.05,28.71,24.32,87.57,24.2,94.36S363.12,433,363.12,433l-24.81-8.27-13-49Z" style="fill:#000000"></path><path d="M332.89,292.88l-38.26-14.19L292,275.33l-49.34,1.53L239,279.22s-37.09,8.13-40.93,8.63c-9,1.15-18.43,13.53-18.43,13.53-1,1.15-47.56,68.93-47.56,68.93L142.93,413s5.13,1.81,19.88-7.86c11.68-7.67,20.76-19.81,24-24.53l-.05,103.55H331.32l-7.87-65.68Z" style="fill:#000000"></path><path d="M325.55,361.1a1.64,1.64,0,0,1,.06-.51c.08-.39.17-.87.28-1.45l1.07-5.32c.89-4.49,2-10.72,3.08-17.62s1.77-13.2,2.24-17.75c.23-2.22.41-4.05.55-5.4.06-.59.11-1.07.16-1.47a1.85,1.85,0,0,1,.09-.51,1.93,1.93,0,0,1,0,.52c0,.4,0,.88-.06,1.48-.06,1.28-.19,3.13-.38,5.41-.38,4.57-1.06,10.87-2.1,17.79s-2.25,13.14-3.23,17.62c-.49,2.24-.91,4.05-1.23,5.29-.15.57-.27,1.05-.38,1.43A2.1,2.1,0,0,1,325.55,361.1Z" style="fill:#263238"></path><path d="M182.25,333.38a3.14,3.14,0,0,1,.13.63c.07.46.16,1.06.28,1.79.23,1.57.53,3.83.88,6.64.69,5.61,1.5,13.38,2.13,22s1,16.41,1.08,22.05c.06,2.83.09,5.12.09,6.7,0,.74,0,1.34,0,1.82a3.91,3.91,0,0,1,0,.63,2.91,2.91,0,0,1-.07-.63c0-.47-.05-1.08-.08-1.82-.07-1.64-.15-3.91-.26-6.68-.23-5.65-.61-13.44-1.23-22s-1.38-16.35-2-22c-.3-2.76-.54-5-.71-6.65-.08-.74-.14-1.34-.18-1.81A2.6,2.6,0,0,1,182.25,333.38Z" style="fill:#263238"></path><path d="M294.61,283.82a3.21,3.21,0,0,1-.5.51c-.35.31-.87.77-1.54,1.34-1.36,1.16-3.34,2.79-5.88,4.7a59.78,59.78,0,0,1-9.44,6,36.86,36.86,0,0,1-13.31,3.14,32.78,32.78,0,0,1-13.53-1.85,22.62,22.62,0,0,1-9-6.5,18.27,18.27,0,0,1-3.58-6.62,13.18,13.18,0,0,1-.42-2,2.94,2.94,0,0,1-.07-.71,3.28,3.28,0,0,1,.17.69,20.17,20.17,0,0,0,.51,2,19,19,0,0,0,3.67,6.44,22.55,22.55,0,0,0,8.94,6.29A32.83,32.83,0,0,0,263.92,299a37.17,37.17,0,0,0,13.13-3.05,63.09,63.09,0,0,0,9.42-5.85c2.56-1.87,4.58-3.46,6-4.56l1.6-1.27A5.69,5.69,0,0,1,294.61,283.82Z" style="fill:#263238"></path><g style="opacity:0.30000000000000004"><path d="M220.8,331.75c-5.76,4-6.46,12.07-6.78,19.07-1.35,28.74-19.69,83.61-27.23,111.37C210.53,425.51,225.09,375.24,220.8,331.75Z"></path></g><path d="M222.37,282.82s-1.92,61.85-7.22,99-31,86.51-31,86.51L180,460.2S194.2,419,200.63,384.43c4.55-24.41,0-98,0-98A29.21,29.21,0,0,1,222.37,282.82Z" style="fill:#263238"></path><path d="M208.72,344.06c-.14,0,.19-12.88.75-28.76s1.13-28.75,1.27-28.74-.19,12.88-.75,28.76S208.86,344.07,208.72,344.06Z" style="fill:#455a64"></path><path d="M128.6,347.61l-4.93,12.74s-6.54,13.33-6,22.39,11.92,42.16,35,31.43S164.19,386,164.19,386l-10.84-29.68-17-11.19A5.22,5.22,0,0,0,128.6,347.61Z" style="fill:#000000"></path><path d="M155.84,312.21c1.51,2,10.22-.3,12.2,3.77a7.54,7.54,0,0,1,0,7.14,8.35,8.35,0,0,1,.88,9,11.64,11.64,0,0,1,.93,6,8.93,8.93,0,0,1-2.93,5.29,5.54,5.54,0,0,1-2.28,5.53c-3,2-10.94,3.54-10.94,3.54l-3.26,6s-4.52,5-10.12,2.76-9.38-13.41-9.38-13.41c.25-1.43,6.54-11.84,6.54-11.84s1.25-15.49,4-19.26,4-4.53,4-4.53,2.4-5.17,2.4-7.39-2.06-9.32-.82-10.76,6.31-.44,8.53,5.43S155.84,312.21,155.84,312.21Z" style="fill:#ffbf9d"></path><path d="M167.75,322.65c0,.16-3-.36-6.68-.38s-6.67.46-6.7.3a6.44,6.44,0,0,1,1.93-.47,30.06,30.06,0,0,1,9.53.06A6.5,6.5,0,0,1,167.75,322.65Z" style="fill:#ff9a6c"></path><path d="M168.44,332.88c0,.16-2.82-.41-6.3-.41s-6.28.52-6.31.36a22.42,22.42,0,0,1,12.61.05Z" style="fill:#ff9a6c"></path><path d="M167.74,343.21a15.32,15.32,0,0,1-5.47,1.18,15.6,15.6,0,0,1-5.59-.36c0-.15,2.5.07,5.55-.16S167.7,343.06,167.74,343.21Z" style="fill:#ff9a6c"></path><path d="M160.1,350.64a7.62,7.62,0,0,1-2.31,1,18,18,0,0,1-12-.45,7.78,7.78,0,0,1-2.22-1.19,26.57,26.57,0,0,0,8.22,1.93A26.34,26.34,0,0,0,160.1,350.64Z" style="fill:#ff9a6c"></path><path d="M160.19,313.49c0,.17-3.23-.52-7.23-.37s-7.14,1-7.18.83a7,7,0,0,1,2-.67,25.69,25.69,0,0,1,5.14-.69,25.33,25.33,0,0,1,5.16.36A7.3,7.3,0,0,1,160.19,313.49Z" style="fill:#ff9a6c"></path><path d="M161.93,400.88c-.05,0,.26-.63.7-1.77a22.66,22.66,0,0,0,1.32-5,23.82,23.82,0,0,0-.09-7.61,22.59,22.59,0,0,0-3.41-8.61c-1.82-2.78-3.85-5.32-5-8.06a32.86,32.86,0,0,1-2.1-7.45c-.36-2.17-.53-3.94-.64-5.17,0-.56-.08-1-.11-1.41a1.53,1.53,0,0,1,0-.49,1.9,1.9,0,0,1,.11.48c0,.38.12.84.2,1.4.17,1.22.4,3,.81,5.12a32.84,32.84,0,0,0,2.17,7.33c1.12,2.66,3.12,5.15,5,8a22.37,22.37,0,0,1,3.45,8.81,23.58,23.58,0,0,1,0,7.75,21.2,21.2,0,0,1-1.5,5,11.77,11.77,0,0,1-.63,1.28A2.46,2.46,0,0,1,161.93,400.88Z" style="fill:#263238"></path><g style="opacity:0.30000000000000004"><path d="M152.94,355c.13.54.29,1.06.46,1.58V355Z"></path></g><g style="opacity:0.30000000000000004"><path d="M162.86,372.89c-3.43-5.28-7.52-10.33-9.46-16.27,0,5.05.24,10.19,2.35,14.75,1.39,3,3.51,5.57,5.28,8.35s3.22,5.95,3,9.24a11.39,11.39,0,0,0-.09,3.49c.29,1.14,1.46,2.18,2.56,1.79a2.81,2.81,0,0,0,1.45-2.09C169.67,385.53,166.58,378.63,162.86,372.89Z"></path></g><path d="M318.83,224.94c-2.29,1.29-5.36-.37-6.4-2.78s-.55-5.19.24-7.7,1.88-5,2-7.57a11.15,11.15,0,0,0-7.49-11c4.45-3.53,4.82-11.1.72-15-1.91-1.85-4.46-2.85-6.68-4.3a24.2,24.2,0,0,1-3.53-2.87,14.47,14.47,0,0,0,6.07.18,9.81,9.81,0,0,0,7.13-6.24,8.9,8.9,0,0,0-2.15-9.12,8.17,8.17,0,0,0-9.18-1.36c-2.87,1.52-4.45,4.65-5.85,7.58l-1.3,2.73c-4.05-5.36-7.86-10.91-14.1-12.79-5.67-1.71-11.76.2-17.66-.23-4.3-.31-8.42-1.87-12.7-2.33s-9.16.44-11.69,3.93c-1.49,2.05-2,4.7-3.46,6.74-3.1,4.2-9.79,4.77-12.34,9.33-2.07,3.7-.48,8.38-1.37,12.53-1,4.52-4.68,7.82-7.73,11.28s-5.7,8.24-4,12.53c1.5,3.77,5.9,5.8,7.34,9.6,1,2.77.28,5.85.23,8.81s1.13,6.48,4,7.15l32.85,8.68c11.31,4.6,23,9.28,35.2,9.26s25.25-5.88,30.07-17.1a7,7,0,0,1-4.72-2.12A11.69,11.69,0,0,0,318.83,224.94Z" style="fill:#263238"></path><path d="M291.91,235.25c2.71-8.33,5.38-16.73,6.62-25.4s1-17.72-2.09-25.93c-.46-1.25-4.4-9.6-5.73-9.47-.94.09,1.49,7.89,1,8.71-4.56,7.83-5.8,17.24-5.07,26.27a118.74,118.74,0,0,0,5.26,25.82" style="fill:#263238"></path><path d="M259.32,161l-2,.11a39.29,39.29,0,0,0-37.17,38.17c-.51,19-1.22,37.31-.55,47.47,1.39,21,23,23.24,23,23.24v10.86c.93,11.08,15.28,13.07,20.72,12.59,18.79,0,28.59-15.38,28.59-15.38l.88-76.27C293.49,179.86,281.3,161.14,259.32,161Z" style="fill:#ffbf9d"></path><path d="M242.58,270s13.31.07,27-9.57c0,0-5.86,15.67-27,14.9Z" style="fill:#ff9a6c"></path><path d="M229.81,216.57a3,3,0,0,0,3.06,2.88,2.89,2.89,0,0,0,3-2.88,3,3,0,0,0-3.06-2.88A2.89,2.89,0,0,0,229.81,216.57Z" style="fill:#263238"></path><path d="M225.09,207.8c.39.38,2.58-1.43,5.81-1.6s5.7,1.33,6,.91c.16-.18-.26-.87-1.33-1.57a8.28,8.28,0,0,0-4.85-1.21,7.94,7.94,0,0,0-4.6,1.76C225.19,206.91,224.89,207.64,225.09,207.8Z" style="fill:#263238"></path><path d="M259.09,216.64a3,3,0,0,0,3.06,2.88,2.88,2.88,0,0,0,3-2.88,3,3,0,0,0-3.06-2.88A2.88,2.88,0,0,0,259.09,216.64Z" style="fill:#263238"></path><path d="M256.85,207.41c.4.38,2.59-1.43,5.82-1.6s5.69,1.33,6,.91c.17-.18-.25-.87-1.33-1.57a8.24,8.24,0,0,0-4.84-1.21,8,8,0,0,0-4.61,1.76C257,206.52,256.66,207.25,256.85,207.41Z" style="fill:#263238"></path><path d="M246.58,232.9c0-.19-2-.43-5.31-.67-.83,0-1.62-.16-1.79-.72a4.19,4.19,0,0,1,.42-2.48q1-3.06,2.11-6.42c2.91-9.14,5-16.64,4.6-16.75s-3,7.2-5.94,16.34q-1,3.38-2,6.46a4.83,4.83,0,0,0-.26,3.26,2.1,2.1,0,0,0,1.43,1.14,6.14,6.14,0,0,0,1.41.12C244.54,233.18,246.57,233.08,246.58,232.9Z" style="fill:#263238"></path><path d="M256.22,234.63c-.53,0-.35,3.51-3.22,6.16s-6.63,2.47-6.63,3c0,.22.87.64,2.45.6a8.75,8.75,0,0,0,5.55-2.28,7.61,7.61,0,0,0,2.47-5.15C256.9,235.44,256.46,234.59,256.22,234.63Z" style="fill:#263238"></path><path d="M256.33,194.27c.36.87,3.57.28,7.39.53s6.95,1.12,7.41.31c.2-.39-.37-1.19-1.66-2a12.95,12.95,0,0,0-11.28-.63C256.83,193.13,256.17,193.86,256.33,194.27Z" style="fill:#263238"></path><path d="M225.85,197c.61.7,2.79-.18,5.47-.36s5,.23,5.46-.57c.21-.39-.19-1.1-1.22-1.74a7.54,7.54,0,0,0-4.51-1,7.68,7.68,0,0,0-4.3,1.71C225.85,195.86,225.58,196.63,225.85,197Z" style="fill:#263238"></path><path d="M291.89,217.51c.35-.18,14.24-5.06,14.55,9.36s-14.23,11.76-14.26,11.35S291.89,217.51,291.89,217.51Z" style="fill:#ffbf9d"></path><path d="M296.46,232.66c.06,0,.26.17.69.35a2.48,2.48,0,0,0,1.87,0c1.52-.59,2.75-3,2.76-5.64a8.26,8.26,0,0,0-.78-3.58,2.91,2.91,0,0,0-1.93-1.89,1.28,1.28,0,0,0-1.47.72c-.18.41-.09.7-.16.72s-.32-.23-.21-.83a1.55,1.55,0,0,1,.54-.91,1.88,1.88,0,0,1,1.38-.4,3.52,3.52,0,0,1,2.68,2.18,8.72,8.72,0,0,1,1,4c0,2.9-1.46,5.66-3.53,6.3a2.69,2.69,0,0,1-2.31-.33C296.5,233,296.41,232.68,296.46,232.66Z" style="fill:#ff9a6c"></path><path d="M229.14,175.3c-2.35-1.26,4.56-8.91,10.26-11.59,8.62-4,21.83-6.63,29.85-4.47,9.66,2.61,17.71,7.29,22.66,16s6.89,18.88,6.73,28.88c0,3-.32,6.24-1.91,8.84-2,3.21-5.82,5.27-5.59,9.66A6.1,6.1,0,0,1,289.7,227c-2.6,2.84-5.87.24-7.39-2.38-3.24-5.61-3.68-12.35-4-18.82-.26-4.6-.5-9.29.74-13.73.67-2.41,1.78-4.69,2.32-7.14s.43-5.22-1.12-7.19a9.28,9.28,0,0,0-1.18-1.17,15.06,15.06,0,0,0-15-2.65c-8.09,3-21.9,7.45-25.56,4.74-5.26-3.9-6.54-6.47-6.54-6.47Z" style="fill:#263238"></path><path d="M268.47,157.29c-8-2.54-17-2.29-24.35,1.65-3.91,2.09-7.42,5.41-8.57,9.69s.75,9.52,4.88,11.14l.28.17c6.18,2,10.17,1.12,16.28-1.08,5.13-1.86,9.69-5.1,14.83-6.93a29.34,29.34,0,0,1,17.15-.72C283.37,165,276.43,159.84,268.47,157.29Z" style="fill:#263238"></path><path d="M295.89,171.55c-.12.11-1.28-1.27-3.62-2.89a20.7,20.7,0,0,0-4.38-2.34,13.39,13.39,0,0,0-5.86-1A19.59,19.59,0,0,0,272,169.48c-2.23,1.77-3.26,3.25-3.4,3.15s.16-.44.63-1.11a15.41,15.41,0,0,1,2.34-2.56A18.61,18.61,0,0,1,282,164.37a13.75,13.75,0,0,1,6.27,1.12,18.8,18.8,0,0,1,4.45,2.62C295,169.93,296,171.5,295.89,171.55Z" style="fill:#455a64"></path><path d="M297.33,176.66c.11,0-.14,1.65-1.09,4.12a30,30,0,0,1-13.47,15.16,12,12,0,0,1-3.95,1.58c-.17-.28,6.05-2.64,11.29-8.63S297,176.53,297.33,176.66Z" style="fill:#455a64"></path><path d="M303.2,179a5,5,0,0,1,.06,1.64,25.83,25.83,0,0,1-.63,4.43,30.09,30.09,0,0,1-18.74,21.5,26.36,26.36,0,0,1-4.3,1.23A5.08,5.08,0,0,1,278,208c0-.17,2.27-.57,5.68-2a31.74,31.74,0,0,0,18.34-21C303,181.32,303,179,303.2,179Z" style="fill:#455a64"></path><path d="M252,156c0,.16-1.49.51-3.82,1.44a31.23,31.23,0,0,0-14.79,12.19c-1.36,2.1-2,3.54-2.15,3.47a11.74,11.74,0,0,1,1.56-3.82,27.39,27.39,0,0,1,6.42-7.65,27.07,27.07,0,0,1,8.73-4.83A11.22,11.22,0,0,1,252,156Z" style="fill:#455a64"></path><path d="M307.72,157.79c.24,0-.39,4.18-3.65,8s-7.24,5.23-7.27,5,3.49-1.93,6.53-5.61S307.44,157.69,307.72,157.79Z" style="fill:#455a64"></path><path d="M262.1,225.41a.54.54,0,1,1-.54-.54A.54.54,0,0,1,262.1,225.41Z" style="fill:#ff9a6c"></path><circle cx="265.53" cy="225.41" r="0.54" style="fill:#ff9a6c"></circle><rect x="249.89" y="315.25" width="68.78" height="93.43" rx="2" transform="translate(115.45 -66.2) rotate(16.63)" style="fill:#455a64"></rect><path d="M241.74,384.8a5.4,5.4,0,0,1-4.38-5.52,5.43,5.43,0,0,1,10.85.38l-1,0a4.43,4.43,0,1,0-5.28,4.19Z" style="fill:#263238"></path><path d="M244,377.44a5.43,5.43,0,1,1,6.47-5.14l-1,0a4.43,4.43,0,1,0-8.85-.32,4.39,4.39,0,0,0,3.57,4.5Z" style="fill:#263238"></path><path d="M246.22,370.07a5.43,5.43,0,1,1,6.47-5.13l-1,0a4.42,4.42,0,0,0-7.44-3.4,4.42,4.42,0,0,0,2.16,7.58Z" style="fill:#263238"></path><path d="M248.46,362.71a5.43,5.43,0,1,1,6.47-5.13l-1,0a4.43,4.43,0,1,0-5.28,4.19Z" style="fill:#263238"></path><path d="M250.7,355.35a5.43,5.43,0,0,1-2.66-9.3,5.43,5.43,0,0,1,9.13,4.17l-1,0a4.43,4.43,0,0,0-4.27-4.58,4.42,4.42,0,0,0-4.58,4.26,4.4,4.4,0,0,0,3.57,4.51Z" style="fill:#263238"></path><path d="M252.94,348a5.43,5.43,0,0,1-2.66-9.3,5.48,5.48,0,0,1,3.9-1.45,5.41,5.41,0,0,1,5.23,5.61l-1,0a4.43,4.43,0,0,0-4.27-4.58,4.43,4.43,0,0,0-1,8.77Z" style="fill:#263238"></path><path d="M255.18,340.63a5.43,5.43,0,0,1,1-10.76h.2a5.44,5.44,0,0,1,5.23,5.62l-1,0a4.43,4.43,0,1,0-8.85-.32,4.39,4.39,0,0,0,3.57,4.5Z" style="fill:#263238"></path><path d="M257.42,333.27a5.43,5.43,0,1,1,6.47-5.14l-1,0a4.43,4.43,0,1,0-5.28,4.18Z" style="fill:#263238"></path><path d="M259.66,325.9a5.43,5.43,0,0,1-2.66-9.3,5.43,5.43,0,0,1,9.13,4.17l-1,0a4.43,4.43,0,1,0-5.28,4.19Z" style="fill:#263238"></path><path d="M261.9,318.54a5.43,5.43,0,0,1-2.66-9.3,5.43,5.43,0,0,1,9.13,4.17l-1,0a4.43,4.43,0,1,0-5.28,4.19Z" style="fill:#263238"></path><path d="M239.5,392.16A5.43,5.43,0,1,1,246,387l-1,0a4.43,4.43,0,0,0-7.44-3.4,4.43,4.43,0,0,0,2.16,7.59Z" style="fill:#263238"></path><path d="M247.05,386.44c1.11-2.83,13.08-44.94,18.55-62.23a7.76,7.76,0,0,1,9.54-4.88l61.49,18.28a7.25,7.25,0,0,1,4.72,8.91l-27.18,94.15a7.26,7.26,0,0,1-8.86,5l-62.66-16.93a7.26,7.26,0,0,1-5.08-9l9.34-32.92Z" style="fill:#fff"></path><path d="M269,317.26a4.77,4.77,0,0,0-5.79,3.21c-4.57,15-19.34,63.31-20.44,66.32l-10.89,35.69a4.75,4.75,0,0,0,3.35,6L302.74,446a4.77,4.77,0,0,0,5.78-3.29l29.41-102a4.76,4.76,0,0,0-3.34-5.92Z" style="fill:#e0e0e0"></path><path d="M269,317.26l1,.23,2.79.72L283.48,321l39.4,10.47,6.38,1.7,3.3.88,1.67.45a5.58,5.58,0,0,1,1.68.65,5,5,0,0,1,2.21,2.87,4.86,4.86,0,0,1,.18,1.86,10.4,10.4,0,0,1-.43,1.81l-2.06,7.17c-2.8,9.72-5.78,20.11-8.93,31s-6.45,22.41-9.88,34.31q-2.56,8.92-5.23,18.15-1.32,4.61-2.67,9.28l-.34,1.17a5.1,5.1,0,0,1-.52,1.17,5,5,0,0,1-1.82,1.78,5.08,5.08,0,0,1-3.75.49l-1.19-.31-37.11-9.65-17.64-4.59-8.55-2.23-2.11-.55a8.08,8.08,0,0,1-2.1-.73,5,5,0,0,1-2.47-3.59,5.16,5.16,0,0,1,.15-2.21c.21-.67.42-1.35.62-2l1.23-4c.81-2.65,1.61-5.27,2.4-7.84l4.59-15,8.31-26.9c5.1-16.43,9.22-29.72,12.08-38.92.72-2.3,1.35-4.34,1.91-6.11a9.38,9.38,0,0,1,.94-2.39,4.68,4.68,0,0,1,1.54-1.48,4.79,4.79,0,0,1,2.78-.68,4,4,0,0,1,1,.18s-.32-.08-1-.12a4.82,4.82,0,0,0-2.72.71,4.66,4.66,0,0,0-1.48,1.46,9.37,9.37,0,0,0-.91,2.37l-1.86,6.12c-2.82,9.21-6.89,22.52-11.92,39-2.52,8.22-5.29,17.24-8.25,26.91q-2.21,7.26-4.56,15-1.18,3.87-2.39,7.85c-.41,1.32-.81,2.66-1.22,4-.21.67-.41,1.35-.62,2a4.66,4.66,0,0,0-.14,2,4.5,4.5,0,0,0,2.24,3.24,7.71,7.71,0,0,0,2,.68l2.11.55,8.56,2.22,17.64,4.58,37.11,9.64a9.11,9.11,0,0,0,2.34.45,4.48,4.48,0,0,0,3.85-2.18,9.25,9.25,0,0,0,.8-2.22c.9-3.11,1.79-6.21,2.68-9.28q2.66-9.21,5.23-18.14c3.44-11.89,6.75-23.37,9.91-34.3s6.16-21.31,9-31l2.07-7.17a10.35,10.35,0,0,0,.42-1.73,4.7,4.7,0,0,0-.16-1.71,4.62,4.62,0,0,0-2-2.64,5.4,5.4,0,0,0-1.58-.61l-1.67-.45-3.3-.88-6.38-1.72-39.35-10.63-10.7-2.91-2.77-.78C269.33,317.37,269,317.26,269,317.26Z" style="fill:#263238"></path><g style="opacity:0.30000000000000004"><path d="M273.83,416.28l-40-3.08c.51,3,2.83,5.35,5.5,6.71a29.32,29.32,0,0,0,8.64,2.38l13.59,2.26c1.73.29,3.56.62,4.85,1.81s1.87,3.27,2.95,4.82c1.79,2.54,5,3.59,8,4.47a353.17,353.17,0,0,0,35.81,8.87c3.35.61,6.83,1.15,10.15.34s6.46-3.28,7-6.65Z"></path></g><path d="M271.81,319c.13,0-7.44,24.6-16.92,54.86s-17.27,54.75-17.41,54.71,7.44-24.61,16.92-54.87S271.67,318.94,271.81,319Z" style="fill:#263238"></path><rect x="275.89" y="347.17" width="40.64" height="20.34" transform="translate(114.62 -69.81) rotate(16.63)" style="fill:#fff"></rect><path d="M279.53,387.55s-9.88-13.16-13.45-16.15-18.37-.6-18.37-.6l-6.42,6.76s1.26,5.14,7.26,2.6l1.67-1.26h6.86l4.26,5L248,383.62s-6.57-4.27-8.07-4.27-5.1,2.89-2.49,8c0,0-5,1.61-3.27,8.42,0,0-4.19,1.15-.37,9.22l.48.92s-4.38,2.08-1.5,6.69,10.15,6,12.34,5.88,41.62,5.69,41.62,5.69l10.65-27.7Z" style="fill:#ffbf9d"></path><path d="M249.65,394.28a5.66,5.66,0,0,1-2.11-.1,15.34,15.34,0,0,1-8.84-4.88,6,6,0,0,1-1.22-1.73,19.79,19.79,0,0,0,12.17,6.71Z" style="fill:#ff9a6c"></path><path d="M243.33,403.14a4.85,4.85,0,0,1-1.78-.52,16.57,16.57,0,0,1-7-5.47,5.13,5.13,0,0,1-.92-1.6A38.93,38.93,0,0,0,238,400,36.22,36.22,0,0,0,243.33,403.14Z" style="fill:#ff9a6c"></path><path d="M243.35,411.17a12.65,12.65,0,0,1-5.22-1.79,12.84,12.84,0,0,1-4.31-3.45c.11-.12,1.92,1.56,4.56,3S243.39,411,243.35,411.17Z" style="fill:#ff9a6c"></path><path d="M378.85,405.13,336,398.46l-50.37-9.52-11.78,39.6s60.2,17.65,76.69,19.82c17.62,2.32,24.45,0,30-11.58C384.12,429.4,381.91,414.59,378.85,405.13Z" style="fill:#000000"></path><path d="M338.92,446.09a1.31,1.31,0,0,1-.32-.06l-.94-.23-3.63-.94-13.56-3.58-46.71-12.5-.25-.06.08-.25c2.35-7.91,4.89-16.46,7.51-25.3l4.26-14.3.07-.23.23.05,55.17,10.92,16.3,3.29,4.39.9,1.13.25.38.1a2.33,2.33,0,0,1-.39,0l-1.14-.2-4.41-.82L340.76,400l-55.2-10.76.29-.18c-1.36,4.6-2.79,9.41-4.25,14.3-2.63,8.85-5.18,17.4-7.53,25.3l-.18-.31L320.55,441l13.52,3.72,3.61,1,.93.27Z" style="fill:#263238"></path></g></svg>
